<svg viewBox="0 0 73 107" fill="none" xmlns="http://www.w3.org/2000/svg">
<rect x="11.2976" y="37.7979" width="51.2738" height="46.4057" rx="20" fill="#F5F6FB"/>
<path d="M24.7984 29.7246C24.3997 29.7246 24.0763 30.0966 24.0763 30.5555V30.9071C24.0763 31.3659 24.3996 31.738 24.7984 31.738C25.1972 31.738 25.5205 31.366 25.5205 30.9071V30.5555C25.5204 30.0966 25.1972 29.7246 24.7984 29.7246Z"  />
<path d="M22.6988 32.4917H22.3934C21.9946 32.4917 21.6713 32.8637 21.6713 33.3226C21.6713 33.7814 21.9945 34.1535 22.3934 34.1535H22.6988C23.0975 34.1535 23.4209 33.7816 23.4209 33.3226C23.4209 32.8638 23.0976 32.4917 22.6988 32.4917Z"  />
<path d="M23.8242 31.0269L23.6082 30.7784C23.3263 30.454 22.869 30.454 22.587 30.7786C22.3051 31.1031 22.3051 31.6292 22.5871 31.9536L22.8032 32.2021C22.9442 32.3643 23.1289 32.4454 23.3137 32.4454C23.4985 32.4454 23.6834 32.3643 23.8243 32.202C24.1063 31.8774 24.1063 31.3514 23.8242 31.0269Z"  />
<path d="M23.8243 34.4436C23.5423 34.1191 23.0851 34.1191 22.8031 34.4436L22.587 34.6922C22.305 35.0166 22.305 35.5428 22.587 35.8672C22.728 36.0294 22.9127 36.1106 23.0976 36.1106C23.2824 36.1106 23.4672 36.0294 23.6082 35.8672L23.8243 35.6186C24.1063 35.2942 24.1063 34.768 23.8243 34.4436Z"  />
<path d="M56.3112 31.8534H31.9168C31.6415 30.076 30.8702 28.448 29.7039 27.208C28.3649 25.7841 26.6227 25 24.7984 25C20.8101 25 17.5654 28.7336 17.5654 33.3229C17.5654 37.9122 20.8101 41.6458 24.7984 41.6458C25.5307 41.6458 26.2502 41.5178 26.9446 41.269C28.0327 42.4502 29.3808 43.3339 30.9033 43.7895C31.8869 44.0839 32.6342 45.0179 32.8069 46.1692L33.7248 52.2869C34.0491 54.4483 35.0943 56.322 36.6679 57.5629C37.8611 58.5037 38.5735 60.0378 38.5735 61.6667V74.1358C38.0229 74.5373 37.6703 75.243 37.6703 76.0216C37.6703 76.0453 37.6706 76.0689 37.6712 76.0926C35.867 76.5169 34.381 76.9077 33.2529 77.2545C32.4844 77.4907 31.9047 77.6991 31.4805 77.8915C31.0853 78.0707 30.3496 78.4044 30.3496 79.1789C30.3496 80.2196 31.5254 80.3972 32.4703 80.5401C33.282 80.6628 34.4066 80.765 35.8128 80.844C38.1883 80.9776 40.5948 80.9998 40.6189 81C40.6207 81 40.6225 81 40.6243 81C40.6261 81 40.628 81 40.6297 81C40.6538 80.9998 43.0603 80.9775 45.4358 80.844C46.842 80.765 47.9666 80.6628 48.7783 80.5401C49.7232 80.3972 50.899 80.2196 50.899 79.1789C50.899 78.3558 50.2394 77.9312 47.83 77.2039C46.37 76.7632 44.5511 76.3183 43.2448 76.0147C43.2433 75.4148 43.036 74.8541 42.6751 74.4417V61.6665C42.6751 60.0377 43.3876 58.5036 44.5807 57.5628C46.1543 56.3219 47.1995 54.4482 47.5238 52.2868L48.4417 46.1691C48.6144 45.0178 49.3616 44.0838 50.3453 43.7894C53.6437 42.8024 56.1244 39.8092 56.909 36.1234C56.912 36.1092 56.9153 36.0952 56.9177 36.0808C57.0834 35.2879 57.1724 34.464 57.1724 33.6206V32.8446C57.1725 32.298 56.7861 31.8534 56.3112 31.8534ZM24.7984 39.9839C21.6065 39.9839 19.0097 36.9958 19.0097 33.3229C19.0097 29.65 21.6065 26.6618 24.7984 26.6618C26.2583 26.6618 27.6524 27.2892 28.7238 28.4285C29.5931 29.3528 30.188 30.5457 30.4437 31.8534H29.7041C29.1325 29.3199 27.1263 27.4883 24.7984 27.4883C22.0025 27.4883 19.7279 30.1057 19.7279 33.3229C19.7279 36.54 22.0026 39.1575 24.7984 39.1575C25.0066 39.1575 25.2152 39.1413 25.423 39.1115C25.5616 39.3717 25.71 39.6244 25.8675 39.8695C25.5165 39.9454 25.1593 39.9839 24.7984 39.9839ZM27.0096 30.7785C26.7277 30.4541 26.2704 30.4541 25.9885 30.7785L25.7725 31.027C25.578 31.2507 25.5178 31.5703 25.5914 31.8534H24.9377C24.4627 31.8534 24.0763 32.298 24.0763 32.8446V33.6206C24.0763 34.4638 24.1652 35.2875 24.3309 36.0801C24.3334 36.0955 24.3368 36.1105 24.3401 36.1256C24.4398 36.5935 24.5659 37.0506 24.7186 37.4935C22.7558 37.4442 21.172 35.593 21.172 33.3229C21.172 31.022 22.7988 29.15 24.7984 29.15C26.3326 29.15 27.6717 30.2617 28.1923 31.8534H27.0828C27.2881 31.5285 27.2643 31.0715 27.0096 30.7785ZM42.8525 77.6189C45.3911 78.2067 46.9848 78.6522 47.9823 78.974C46.158 79.1802 43.2317 79.3152 40.6244 79.3382C38.0177 79.3152 35.0916 79.1802 33.2673 78.9742C34.2213 78.6663 35.7204 78.2454 38.0697 77.6949C38.7196 77.5428 39.1694 76.8425 39.1161 76.0666C39.1151 76.0518 39.1145 76.0367 39.1145 76.0215C39.1145 75.7641 39.2657 75.5378 39.4823 75.471C39.7981 75.3738 40.0177 75.0445 40.0177 74.6684V61.6665C40.0177 60.5725 39.7783 59.5115 39.3391 58.568C39.7427 58.5981 40.1834 58.6135 40.6244 58.6135C41.0654 58.6135 41.5061 58.5981 41.9097 58.568C41.4705 59.5116 41.2311 60.5726 41.2311 61.6665V74.8361C41.2311 75.1212 41.3582 75.3864 41.5677 75.5386C41.7136 75.6446 41.8008 75.825 41.8008 76.0214C41.8008 76.034 41.8004 76.0466 41.7998 76.0581C41.7582 76.7995 42.2107 77.4704 42.8525 77.6189ZM55.7285 33.6206H55.7284C55.7284 34.1201 55.6919 34.6117 55.6217 35.0917H33.8832C33.4845 35.0917 33.1611 35.4637 33.1611 35.9226C33.1611 36.3815 33.4844 36.7535 33.8832 36.7535H55.2298C54.3664 39.3772 52.4453 41.4442 49.9821 42.1812C48.4509 42.6393 47.2877 44.0937 47.0188 45.8865L46.101 52.0041C45.8436 53.7198 45.0139 55.2071 43.7646 56.1921C43.5709 56.3449 42.9957 56.7017 42.8907 56.7555C42.3193 57.0147 38.9344 57.0148 38.3591 56.756C38.2545 56.7028 37.6785 56.3453 37.4843 56.1922C36.235 55.2071 35.4053 53.7198 35.1479 52.0042L34.2301 45.8866C33.9612 44.0938 32.7979 42.6395 31.2668 42.1813C29.8731 41.7642 28.6532 40.921 27.6996 39.7925C27.677 39.7604 27.6522 39.7308 27.626 39.7033C26.9296 38.856 26.3812 37.8541 26.0191 36.7537H30.5236C30.9223 36.7537 31.2457 36.3817 31.2457 35.9227C31.2457 35.4639 30.9224 35.0918 30.5236 35.0918H25.6272C25.557 34.6118 25.5205 34.1201 25.5205 33.6207V33.5153H55.7285V33.6206V33.6206Z"  />
</svg>
