<svg id="Слой_1" data-name="Слой 1" xmlns="http://www.w3.org/2000/svg" viewBox="0 0 1209 232"><defs><style>.cls-1{fill:#dfe2eb;}</style></defs><path class="cls-1" d="M89,104.35A28.06,28.06,0,0,1,86.42,116a72.83,72.83,0,0,1-7.24,12.5,4.54,4.54,0,0,1-.39.48l3.39,4.21a.89.89,0,0,1,.07,1,30.79,30.79,0,0,1-5.66,6.55,25.63,25.63,0,0,1-7,4.28.89.89,0,0,1-.9-.16l-2.93-2.59a1.24,1.24,0,0,1-.18-.22c-2.57,1.33-7.37,3.1-15.26,3.74-7,.57-12.72-.31-17-2.62-.23-.13-.6-.31-1-.51-.7-.34-1.42-.69-1.82-.93s-.84-.49-1.33-.78a41.6,41.6,0,0,1-16.51-15.85c-4.63-8-5.11-12-5.54-15.55a19.36,19.36,0,0,0-1.56-6.34c-2.78-6.2-5-7.44-5.07-7.45A.92.92,0,0,1,0,95.22a.93.93,0,0,1,.12-.73C.6,93.85,3,90.6,5.24,90.57a4.8,4.8,0,0,1,2.41.64c.56.29.58.28.74.16a1.65,1.65,0,0,0,.41-.74c.33-.9.84-2.25,3.46-2.31a5.13,5.13,0,0,1,4.09,1.94,49.68,49.68,0,0,1,6.44-9.89,32.81,32.81,0,0,1,6.05-5.27c1.25-.85,2.08-1.36,2.64-1.66a14,14,0,0,1-1.09-2.53,3.94,3.94,0,0,0-.95-1.71c-1.9-2-.41-5.38-.13-5.79A1,1,0,0,1,30,63c.51-.06.83.23,1.4.76a14.24,14.24,0,0,0,6.3,3.59c3,.79,6.51.62,9.6.48a35.33,35.33,0,0,1,5.25,0c4.76.58,14.67,1.77,22.81,9.07A45.41,45.41,0,0,1,85,89.31a.94.94,0,0,1,.14.26c.58,1.12,1.09,2.25,1.54,3.37A30.75,30.75,0,0,1,89,104.35Zm-2.28,4.88a29.46,29.46,0,0,0-3.1-18.75,16.54,16.54,0,0,0-7.49-1.43c-4.74.09-6.24.92-6.26.92a.89.89,0,0,1-1.21-.31.87.87,0,0,1,.28-1.2c.18-.11,1.87-1.08,7.16-1.19a19.72,19.72,0,0,1,6.19.8,43,43,0,0,0-8.12-9.84,29.82,29.82,0,0,0-4.78-3.49,14.73,14.73,0,0,1-7,.66c-4.49-.46-7-.63-7-.64A.89.89,0,1,1,55.58,73s2.5.17,7,.64a16.2,16.2,0,0,0,4.52-.11A45,45,0,0,0,52.33,69.6a32.63,32.63,0,0,0-4.95,0c-3.22.15-6.86.32-10.14-.53a15.73,15.73,0,0,1-6.79-3.76,3,3,0,0,0,.3,2.67,5.71,5.71,0,0,1,1.32,2.35,14,14,0,0,0,1.56,3.26c.91,1.47,2.11,1.51,4,1.44a7,7,0,0,1,3.9.64c2.18,1.27,1.68,2.81,1.35,3.83a2.93,2.93,0,0,0-.22,1.54,9.5,9.5,0,0,0,2.27-.53,15.33,15.33,0,0,1,6.9-.91A3.8,3.8,0,0,1,54.56,81a2.76,2.76,0,0,1,.13,2.32c-.23.9-.21,1.07.16,1.33a11.33,11.33,0,0,0,4.53,1.64c.76.16,1.62.34,2.58.6a4.67,4.67,0,0,1,3.15,2.31c.87,1.71.63,4.17-.76,7.75a21.75,21.75,0,0,0-1.46,7.54v0a3.85,3.85,0,0,0,.93,2.24c4.92,5.13,7.7,10.79,8,16.36a27.24,27.24,0,0,1-.1,3.35,3.41,3.41,0,0,0,6.06,1.07,70.62,70.62,0,0,0,7.06-12.2,27.39,27.39,0,0,0,1.41-3.87,26.69,26.69,0,0,0-6.11-5.61,17.93,17.93,0,0,1-5.27,1.41,11.4,11.4,0,0,1-3.11-.09l.63-1.66-.07,0a11.69,11.69,0,0,0,2.44,0,13.44,13.44,0,0,0,3.49-.8c-4.7-2.7-6.37-3.1-6.38-3.1a.9.9,0,0,1-.68-1.06.87.87,0,0,1,1-.68c.19,0,2,.46,7.29,3.52A29.78,29.78,0,0,1,86.72,109.23Zm-17.22,34a25,25,0,0,0,5.93-3.76,29.64,29.64,0,0,0,5-5.61l-2.68-3.32c-.94,1.21-2.46,3.17-3.53,4.42a41,41,0,0,1-6.24,5.77.81.81,0,0,1-.18.1l-.54.39Zm-.18-5.91a37.58,37.58,0,0,0,3.51-3.52c.71-.84,1.66-2,2.48-3.08a5.39,5.39,0,0,1-4-1.48A61.57,61.57,0,0,1,69.32,137.28Zm-2.58,2.05a59.71,59.71,0,0,0,3.14-12.83,6.38,6.38,0,0,1-.09-1.08,25.47,25.47,0,0,0-.36-4.88,23.81,23.81,0,0,0-5.91-11.37l-.85-1-.22-.3a43.8,43.8,0,0,0-5.06-4.45c-7.44-5.64-11-5.29-12.71-5.12l-.25,0a14,14,0,0,0-2.09.55c-2.21.68-5.23,1.62-7.45.74-2.06-.82-2.25-2.9-2.42-4.9a8.74,8.74,0,0,0-1-4.09c-1.65-2.49-5.9-1.24-8.15-.1A10.78,10.78,0,0,0,21.14,92c-1,.84-2.06,1.7-3.64,1.3a4.68,4.68,0,0,1-2.28-1.62,3.6,3.6,0,0,0-2.92-1.56c-1.41,0-1.56.44-1.84,1.16a3.12,3.12,0,0,1-1,1.54,2.22,2.22,0,0,1-2.62,0,3.09,3.09,0,0,0-1.58-.45c-.83,0-2.18,1.3-3.12,2.46,1.06.9,2.94,3,5,7.71a21.27,21.27,0,0,1,1.71,6.86c.4,3.35.86,7.16,5.32,14.87,5.23,9.06,11.88,12.9,15.85,15.2.51.29,1,.56,1.37.81s1.07.55,1.66.84l1.09.54c3.71,2,8.62,2.83,14.61,2.52a47.16,47.16,0,0,1-17.36-9.43c-10.39-9-16.06-26.54-16.3-27.28a.89.89,0,1,1,1.7-.54C16.88,107.08,22,123,31.15,132c.58-1.75,1.74-5.82,1.09-8.65-.27-1.16-.52-2.16-.74-3a26.51,26.51,0,0,1-1-5.65v0a.89.89,0,0,1,1.78,0,23.52,23.52,0,0,0,.9,5l1.66-1.73a.89.89,0,0,1,1.29,1.23l-2.44,2.54c.1.42.21.87.31,1.35.89,3.87-1,9.32-1.39,10.37l0,0a44.32,44.32,0,0,0,10,6.49c-1.29-2.37-2.95-6.25-1.72-8.71a13.82,13.82,0,0,1,3.71-4.08c1.55-1.32,3-2.56,3.57-4.19a.89.89,0,1,1,1.69.57c-.71,2.09-2.44,3.56-4.11,5-.61.52-1.2,1-1.73,1.53a19.21,19.21,0,0,0,5.13,1,22.61,22.61,0,0,0,6.18-1.25.89.89,0,1,1,.6,1.67,23.89,23.89,0,0,1-6.8,1.36,22.34,22.34,0,0,1-6.34-1.34,4.86,4.86,0,0,0-.31.53c-1.11,2.22,1.73,7.32,2.82,8.93a1.14,1.14,0,0,1,.1.19,40.91,40.91,0,0,0,8.88,2.51h0C62.38,142.36,66,139.91,66.74,139.33Zm-5.62-35.2a23.5,23.5,0,0,1,1.57-7.87c1.16-3,1.44-5.11.83-6.31a2.94,2.94,0,0,0-2-1.39c-.92-.25-1.72-.42-2.49-.58a12.89,12.89,0,0,1-5.17-1.92A2.66,2.66,0,0,1,53,82.83c.1-.36.2-.77.11-.91s-.29-.35-1.54-.56a13.68,13.68,0,0,0-6.09.86c-1.64.5-2.83.86-3.71.37a1.63,1.63,0,0,1-.79-1A4.3,4.3,0,0,1,41.18,79c.31-1,.39-1.21-.56-1.76a5.56,5.56,0,0,0-2.94-.39C36,76.88,33.91,77,32.42,75a32.72,32.72,0,0,0-8.29,6.56,49.52,49.52,0,0,0-6.4,9.94l.2.07c.65.16,1-.1,2.07-1a12.9,12.9,0,0,1,2.48-1.7c3.45-1.74,8.25-2.59,10.44.7a10.21,10.21,0,0,1,1.32,4.92c.17,1.91.31,3,1.3,3.4,1.65.66,4.32-.17,6.27-.78a14.4,14.4,0,0,1,2.46-.62l.23,0c1.94-.19,6-.59,14,5.47C59.4,102.68,60.28,103.39,61.12,104.13Z" transform="translate(0 0)"/><path class="cls-1" d="M142,190.65A28.06,28.06,0,0,1,144.58,179a72.83,72.83,0,0,1,7.24-12.5,4.54,4.54,0,0,1,.39-.48l-3.39-4.21a.89.89,0,0,1-.07-1,30.79,30.79,0,0,1,5.66-6.55,25.63,25.63,0,0,1,7-4.28.89.89,0,0,1,.9.16l2.93,2.59a1.24,1.24,0,0,1,.18.22c2.57-1.33,7.37-3.1,15.26-3.74,7-.57,12.72.31,17,2.62l1,.51c.7.34,1.42.69,1.82.93s.84.49,1.33.78a41.6,41.6,0,0,1,16.51,15.85c4.63,8,5.11,12,5.54,15.55a19.36,19.36,0,0,0,1.56,6.34c2.78,6.2,5.05,7.44,5.07,7.45a.92.92,0,0,1,.46.58.93.93,0,0,1-.12.73c-.45.64-2.81,3.89-5.09,3.92a4.8,4.8,0,0,1-2.41-.64c-.56-.29-.58-.28-.74-.16a1.75,1.75,0,0,0-.41.74c-.33.9-.84,2.25-3.46,2.31a5.13,5.13,0,0,1-4.09-1.94,49.22,49.22,0,0,1-6.44,9.89,32.81,32.81,0,0,1-6.05,5.27c-1.25.85-2.08,1.36-2.64,1.66a14,14,0,0,1,1.09,2.53,4,4,0,0,0,.95,1.71c1.9,2,.41,5.38.13,5.79a1,1,0,0,1-.68.4c-.51.06-.83-.23-1.4-.76a14.24,14.24,0,0,0-6.3-3.59c-3-.79-6.52-.62-9.6-.48a34,34,0,0,1-5.25,0c-4.76-.58-14.67-1.77-22.81-9.07A45.41,45.41,0,0,1,146,205.69a.94.94,0,0,1-.14-.26c-.58-1.12-1.09-2.25-1.54-3.37A30.75,30.75,0,0,1,142,190.65Zm2.28-4.88a29.46,29.46,0,0,0,3.1,18.75,16.68,16.68,0,0,0,7.49,1.44c4.74-.1,6.24-.93,6.26-.93a.89.89,0,0,1,1.21.31.87.87,0,0,1-.28,1.2c-.18.11-1.87,1.08-7.16,1.19a19.72,19.72,0,0,1-6.19-.8,42.77,42.77,0,0,0,8.13,9.84,29.32,29.32,0,0,0,4.77,3.49,14.73,14.73,0,0,1,7-.66c4.5.46,7,.64,7,.64a.89.89,0,1,1-.12,1.77s-2.5-.17-7-.64a16.2,16.2,0,0,0-4.52.11,45,45,0,0,0,14.81,3.92,32.63,32.63,0,0,0,5,0c3.22-.15,6.87-.32,10.14.53a15.73,15.73,0,0,1,6.79,3.76,3,3,0,0,0-.3-2.67,5.71,5.71,0,0,1-1.32-2.35,14,14,0,0,0-1.56-3.26c-.91-1.47-2.11-1.51-4-1.44a7,7,0,0,1-3.9-.64c-2.18-1.27-1.68-2.81-1.35-3.83a2.94,2.94,0,0,0,.22-1.54,9.5,9.5,0,0,0-2.27.53,15.33,15.33,0,0,1-6.9.91,3.8,3.8,0,0,1-2.74-1.34,2.76,2.76,0,0,1-.13-2.32c.23-.9.21-1.07-.16-1.33a11.28,11.28,0,0,0-4.53-1.64c-.75-.16-1.62-.34-2.58-.6a4.6,4.6,0,0,1-3.14-2.31c-.88-1.71-.64-4.17.75-7.75a21.75,21.75,0,0,0,1.46-7.54v0a3.85,3.85,0,0,0-.93-2.24c-4.92-5.13-7.7-10.79-8-16.35a25.5,25.5,0,0,1,.1-3.36,3.41,3.41,0,0,0-6.06-1.07,70.62,70.62,0,0,0-7.06,12.2,27.39,27.39,0,0,0-1.41,3.87,26.69,26.69,0,0,0,6.11,5.61,17.93,17.93,0,0,1,5.27-1.41,11.3,11.3,0,0,1,3.1.09l-.62,1.66.07,0a11.69,11.69,0,0,0-2.44,0,13.44,13.44,0,0,0-3.49.8c4.7,2.7,6.37,3.1,6.38,3.11a.88.88,0,0,1,.68,1.05.87.87,0,0,1-1,.68c-.19,0-2-.47-7.29-3.52A29.58,29.58,0,0,1,144.28,185.77Zm17.22-34a25,25,0,0,0-5.93,3.76,29.64,29.64,0,0,0-5,5.61l2.68,3.32c.94-1.21,2.46-3.17,3.53-4.42a41,41,0,0,1,6.24-5.77.81.81,0,0,1,.18-.1l.54-.39Zm.18,5.91a37.58,37.58,0,0,0-3.51,3.52c-.71.84-1.66,2-2.48,3.08a5.39,5.39,0,0,1,4,1.48A61.57,61.57,0,0,1,161.68,157.72Zm2.58-2.05a59.71,59.71,0,0,0-3.14,12.83,6.38,6.38,0,0,1,.09,1.08,25.47,25.47,0,0,0,.36,4.88,24,24,0,0,0,5.91,11.38c.32.38.61.72.85,1l.22.29a44.65,44.65,0,0,0,5.06,4.45c7.44,5.64,11,5.29,12.71,5.12l.25,0a14,14,0,0,0,2.09-.55c2.21-.68,5.23-1.62,7.45-.74,2.06.82,2.25,2.9,2.43,4.9a8.61,8.61,0,0,0,1,4.09c1.65,2.49,5.9,1.24,8.15.1a11.5,11.5,0,0,0,2.15-1.48c1-.84,2-1.7,3.63-1.3a4.77,4.77,0,0,1,2.29,1.62,3.57,3.57,0,0,0,2.91,1.56c1.41,0,1.56-.44,1.84-1.16a3.12,3.12,0,0,1,1-1.54,2.22,2.22,0,0,1,2.62,0,3.09,3.09,0,0,0,1.58.45c.83,0,2.18-1.3,3.12-2.46-1.06-.9-2.94-3-5-7.71a21.27,21.27,0,0,1-1.71-6.86c-.4-3.35-.86-7.16-5.32-14.87-5.23-9.06-11.88-12.9-15.85-15.2-.51-.29-1-.56-1.37-.81s-1.07-.55-1.67-.84l-1.08-.54c-3.71-2-8.62-2.83-14.61-2.52a47.16,47.16,0,0,1,17.36,9.43c10.39,9,16.06,26.54,16.3,27.28a.89.89,0,0,1-1.7.54c0-.17-5.21-16.09-14.32-25.13-.58,1.75-1.74,5.82-1.09,8.65.27,1.16.52,2.16.74,3a27.18,27.18,0,0,1,1,5.64v0a.89.89,0,0,1-1.78,0,24.17,24.17,0,0,0-.9-5l-1.66,1.73a.89.89,0,1,1-1.29-1.23l2.44-2.54c-.1-.42-.21-.87-.31-1.35-.89-3.87,1-9.32,1.39-10.37l0,0a44.32,44.32,0,0,0-10-6.49c1.29,2.37,3,6.25,1.72,8.71a13.69,13.69,0,0,1-3.71,4.08c-1.55,1.32-3,2.56-3.57,4.19a.89.89,0,1,1-1.69-.57c.71-2.09,2.44-3.56,4.11-5,.61-.52,1.2-1,1.73-1.53a19.21,19.21,0,0,0-5.13-1,22.61,22.61,0,0,0-6.18,1.25.89.89,0,1,1-.6-1.67,23.89,23.89,0,0,1,6.8-1.36,22.34,22.34,0,0,1,6.34,1.34,4.86,4.86,0,0,0,.31-.53c1.11-2.22-1.74-7.32-2.82-8.93a1.14,1.14,0,0,1-.1-.19,40.91,40.91,0,0,0-8.88-2.51h0C168.62,152.64,165,155.09,164.26,155.67Zm5.62,35.2a23.5,23.5,0,0,1-1.57,7.87c-1.16,3-1.44,5.11-.83,6.31a2.94,2.94,0,0,0,2,1.39c.92.25,1.72.42,2.49.58a12.89,12.89,0,0,1,5.17,1.92,2.66,2.66,0,0,1,.88,3.23c-.09.36-.2.77-.11.91s.29.35,1.53.56a13.77,13.77,0,0,0,6.11-.86c1.63-.5,2.82-.86,3.7-.37a1.66,1.66,0,0,1,.79,1,4.34,4.34,0,0,1-.24,2.59c-.31,1-.39,1.2.56,1.75a5.56,5.56,0,0,0,2.94.39c1.69-.06,3.77-.13,5.26,1.84a32.72,32.72,0,0,0,8.29-6.56,49.52,49.52,0,0,0,6.4-9.94l-.2-.07c-.65-.16-1,.1-2.07,1a12.47,12.47,0,0,1-2.48,1.7c-3.45,1.74-8.25,2.59-10.44-.7a10.21,10.21,0,0,1-1.32-4.92c-.17-1.91-.31-3-1.3-3.4-1.65-.65-4.32.17-6.27.78a14.4,14.4,0,0,1-2.46.62l-.23,0c-1.94.19-6,.59-14-5.47C171.6,192.32,170.72,191.6,169.88,190.87Z" transform="translate(0 0)"/><path class="cls-1" d="M475,190.35A28.06,28.06,0,0,1,472.42,202a72.83,72.83,0,0,1-7.24,12.5,4.54,4.54,0,0,1-.39.48l3.39,4.21a.89.89,0,0,1,.07,1,30.79,30.79,0,0,1-5.66,6.55,25.63,25.63,0,0,1-6.95,4.28.89.89,0,0,1-.9-.16l-2.93-2.59a1.24,1.24,0,0,1-.18-.22c-2.57,1.33-7.37,3.1-15.26,3.74-7,.57-12.72-.31-17-2.62-.23-.13-.6-.31-1-.51-.7-.34-1.42-.69-1.82-.93s-.84-.49-1.33-.78a41.6,41.6,0,0,1-16.51-15.85c-4.63-8-5.11-12-5.54-15.55a19.36,19.36,0,0,0-1.56-6.34c-2.78-6.2-5.05-7.44-5.07-7.45a.92.92,0,0,1-.46-.58.93.93,0,0,1,.12-.73c.45-.64,2.81-3.89,5.09-3.92a4.8,4.8,0,0,1,2.41.64c.56.29.58.28.74.16a1.75,1.75,0,0,0,.41-.74c.33-.9.84-2.25,3.46-2.31a5.13,5.13,0,0,1,4.09,1.94,49.68,49.68,0,0,1,6.44-9.89,33.14,33.14,0,0,1,6-5.27c1.25-.85,2.08-1.36,2.64-1.66a14,14,0,0,1-1.09-2.53,4,4,0,0,0-.95-1.71c-1.9-2-.41-5.38-.13-5.79a1,1,0,0,1,.68-.4c.51-.06.83.23,1.4.76a14.24,14.24,0,0,0,6.3,3.59c3,.79,6.51.62,9.6.48a34,34,0,0,1,5.25,0c4.76.58,14.67,1.77,22.81,9.07A45.41,45.41,0,0,1,471,175.31a.94.94,0,0,1,.14.26c.58,1.12,1.09,2.25,1.54,3.37A30.75,30.75,0,0,1,475,190.35Zm-2.28,4.88a29.46,29.46,0,0,0-3.1-18.75,16.64,16.64,0,0,0-7.49-1.44c-4.74.1-6.24.93-6.26.93a.89.89,0,0,1-1.21-.31.87.87,0,0,1,.28-1.2c.18-.11,1.87-1.08,7.16-1.19a19.72,19.72,0,0,1,6.19.8,43,43,0,0,0-8.12-9.84,29.82,29.82,0,0,0-4.78-3.49,14.73,14.73,0,0,1-7,.66c-4.5-.46-6.95-.64-7-.64a.89.89,0,1,1,.12-1.77s2.5.17,7,.64a16.2,16.2,0,0,0,4.52-.11,45,45,0,0,0-14.81-3.92,32.63,32.63,0,0,0-4.95,0c-3.22.15-6.86.32-10.14-.53a15.73,15.73,0,0,1-6.79-3.76,3,3,0,0,0,.3,2.67,5.71,5.71,0,0,1,1.32,2.35,14.44,14.44,0,0,0,1.56,3.26c.91,1.47,2.11,1.51,4,1.44a7,7,0,0,1,3.9.64c2.18,1.27,1.68,2.81,1.35,3.83a2.94,2.94,0,0,0-.22,1.54,9.5,9.5,0,0,0,2.27-.53,15.33,15.33,0,0,1,6.9-.91,3.8,3.8,0,0,1,2.74,1.34,2.76,2.76,0,0,1,.13,2.32c-.23.9-.21,1.07.16,1.33a11.28,11.28,0,0,0,4.53,1.64c.76.16,1.62.34,2.58.6a4.64,4.64,0,0,1,3.15,2.31c.87,1.71.63,4.17-.76,7.75a21.75,21.75,0,0,0-1.46,7.54v0a3.85,3.85,0,0,0,.93,2.24c4.92,5.13,7.7,10.79,8,16.35a23.88,23.88,0,0,1-.1,3.36,3.41,3.41,0,0,0,6.06,1.07,71.27,71.27,0,0,0,7.06-12.2,27.39,27.39,0,0,0,1.41-3.87,26.69,26.69,0,0,0-6.11-5.61,17.93,17.93,0,0,1-5.27,1.41,11.3,11.3,0,0,1-3.1-.09l.62-1.66-.07,0a11.69,11.69,0,0,0,2.44,0,13.26,13.26,0,0,0,3.48-.8c-4.68-2.7-6.36-3.1-6.37-3.11a.88.88,0,0,1-.68-1.05.87.87,0,0,1,1-.68c.19,0,2,.47,7.29,3.52A29.78,29.78,0,0,1,472.72,195.23Zm-17.22,34a25,25,0,0,0,5.93-3.76,30,30,0,0,0,5-5.61l-2.68-3.32c-.94,1.21-2.46,3.17-3.53,4.42a41,41,0,0,1-6.24,5.77.81.81,0,0,1-.18.1l-.54.39Zm-.18-5.91a37.58,37.58,0,0,0,3.51-3.52c.72-.84,1.66-2,2.48-3.08a5.39,5.39,0,0,1-4-1.48A61.57,61.57,0,0,1,455.32,223.28Zm-2.59,2.05a58.92,58.92,0,0,0,3.15-12.83,6.38,6.38,0,0,1-.09-1.08,24.67,24.67,0,0,0-.37-4.88,23.9,23.9,0,0,0-5.9-11.38c-.32-.38-.61-.72-.85-1l-.22-.29a44.65,44.65,0,0,0-5.06-4.45c-7.44-5.64-11-5.29-12.71-5.12l-.25,0a14,14,0,0,0-2.09.55c-2.21.68-5.23,1.62-7.45.74-2.06-.82-2.25-2.9-2.43-4.9a8.61,8.61,0,0,0-1-4.09c-1.65-2.49-5.9-1.24-8.15-.1a11.08,11.08,0,0,0-2.14,1.48c-1,.84-2.06,1.7-3.64,1.3a4.77,4.77,0,0,1-2.29-1.62,3.57,3.57,0,0,0-2.91-1.56c-1.41,0-1.56.44-1.84,1.16a3.12,3.12,0,0,1-1,1.54,2.22,2.22,0,0,1-2.62,0,3.09,3.09,0,0,0-1.58-.45c-.83,0-2.18,1.3-3.12,2.46,1.06.9,2.94,3,5,7.71a21.27,21.27,0,0,1,1.71,6.86c.4,3.35.86,7.16,5.32,14.87,5.23,9.06,11.88,12.9,15.85,15.2.51.29,1,.56,1.37.81s1.07.55,1.67.84l1.08.54c3.71,2,8.62,2.83,14.61,2.52a47.16,47.16,0,0,1-17.36-9.43c-10.39-9-16.06-26.54-16.3-27.28a.89.89,0,1,1,1.7-.54c.05.17,5.21,16.09,14.32,25.13.58-1.75,1.74-5.82,1.09-8.65-.27-1.16-.52-2.16-.74-3a27.18,27.18,0,0,1-1-5.64v0a.89.89,0,0,1,1.78,0,24.17,24.17,0,0,0,.9,5l1.66-1.73a.89.89,0,1,1,1.29,1.23l-2.44,2.54c.1.42.21.87.31,1.35.89,3.87-1,9.32-1.39,10.37l0,0a44.32,44.32,0,0,0,10,6.49c-1.29-2.37-2.95-6.25-1.72-8.71a13.69,13.69,0,0,1,3.71-4.08c1.55-1.32,3-2.56,3.57-4.19a.89.89,0,1,1,1.69.57c-.71,2.09-2.44,3.56-4.11,5-.61.52-1.2,1-1.73,1.53a19.21,19.21,0,0,0,5.13,1,22.7,22.7,0,0,0,6.18-1.25.89.89,0,1,1,.6,1.67,23.89,23.89,0,0,1-6.8,1.36,22.34,22.34,0,0,1-6.34-1.34,4.86,4.86,0,0,0-.31.53c-1.11,2.22,1.74,7.32,2.82,8.93a1.14,1.14,0,0,1,.1.19,40.91,40.91,0,0,0,8.88,2.51h0C448.38,228.36,452,225.91,452.73,225.33Zm-5.61-35.2a23.75,23.75,0,0,1,1.57-7.87c1.16-3,1.44-5.11.83-6.31a2.94,2.94,0,0,0-2-1.39c-.92-.25-1.72-.42-2.49-.58a12.89,12.89,0,0,1-5.17-1.92,2.66,2.66,0,0,1-.88-3.23c.09-.36.2-.77.11-.91s-.29-.35-1.53-.56a13.77,13.77,0,0,0-6.11.86c-1.63.5-2.82.86-3.7.37a1.63,1.63,0,0,1-.79-1,4.34,4.34,0,0,1,.24-2.59c.31-1,.39-1.2-.56-1.75a5.56,5.56,0,0,0-2.94-.39c-1.69.06-3.77.13-5.26-1.84a32.72,32.72,0,0,0-8.29,6.56,49.06,49.06,0,0,0-6.4,9.94l.2.07c.65.16,1-.1,2.07-1a12.47,12.47,0,0,1,2.48-1.7c3.45-1.74,8.25-2.59,10.44.7a10.21,10.21,0,0,1,1.32,4.92c.17,1.91.31,3,1.3,3.4,1.65.65,4.32-.17,6.27-.78a14.4,14.4,0,0,1,2.46-.62l.23,0c1.94-.19,6-.59,14,5.47C445.4,188.68,446.28,189.4,447.12,190.13Z" transform="translate(0 0)"/><path class="cls-1" d="M630,190.65A28.06,28.06,0,0,1,632.58,179a72.83,72.83,0,0,1,7.24-12.5,4.54,4.54,0,0,1,.39-.48l-3.39-4.21a.89.89,0,0,1-.07-1,30.79,30.79,0,0,1,5.66-6.55,25.63,25.63,0,0,1,7-4.28.89.89,0,0,1,.9.16l2.93,2.59a1.24,1.24,0,0,1,.18.22c2.57-1.33,7.37-3.1,15.26-3.74,7-.57,12.72.31,17,2.62l1,.51c.7.34,1.42.69,1.82.93s.84.49,1.33.78a41.6,41.6,0,0,1,16.51,15.85c4.63,8,5.11,12,5.54,15.55a19.36,19.36,0,0,0,1.56,6.34c2.78,6.2,5,7.44,5.07,7.45a.92.92,0,0,1,.46.58.93.93,0,0,1-.12.73c-.45.64-2.81,3.89-5.09,3.92a4.8,4.8,0,0,1-2.41-.64c-.56-.29-.58-.28-.74-.16a1.65,1.65,0,0,0-.41.74c-.33.9-.84,2.25-3.46,2.31a5.13,5.13,0,0,1-4.09-1.94,49.68,49.68,0,0,1-6.44,9.89,33.14,33.14,0,0,1-6.05,5.27c-1.25.85-2.08,1.36-2.64,1.66a14,14,0,0,1,1.09,2.53,4,4,0,0,0,.95,1.71c1.9,2,.41,5.38.13,5.79a1,1,0,0,1-.68.4c-.51.06-.83-.23-1.4-.76a14.24,14.24,0,0,0-6.3-3.59c-3-.79-6.52-.62-9.6-.48a34,34,0,0,1-5.25,0c-4.76-.58-14.67-1.77-22.81-9.07A45.41,45.41,0,0,1,634,205.69a.94.94,0,0,1-.14-.26c-.58-1.12-1.09-2.25-1.54-3.37A30.75,30.75,0,0,1,630,190.65Zm2.28-4.88a29.39,29.39,0,0,0,3.1,18.75,16.64,16.64,0,0,0,7.49,1.44c4.74-.1,6.24-.93,6.26-.93a.89.89,0,0,1,1.21.31.87.87,0,0,1-.28,1.2c-.18.11-1.87,1.08-7.15,1.19a19.74,19.74,0,0,1-6.2-.8,42.77,42.77,0,0,0,8.13,9.84,29.32,29.32,0,0,0,4.77,3.49,14.73,14.73,0,0,1,7-.66c4.5.46,6.95.64,7,.64a.89.89,0,1,1-.12,1.77s-2.5-.17-7-.64a16.2,16.2,0,0,0-4.52.11,45,45,0,0,0,14.81,3.92,32.63,32.63,0,0,0,5,0c3.22-.15,6.86-.32,10.14.53a15.73,15.73,0,0,1,6.79,3.76,3,3,0,0,0-.3-2.67,5.71,5.71,0,0,1-1.32-2.35,14.44,14.44,0,0,0-1.56-3.26c-.91-1.47-2.11-1.51-4-1.44a7,7,0,0,1-3.9-.64c-2.18-1.27-1.68-2.81-1.35-3.83a2.84,2.84,0,0,0,.22-1.54,9.5,9.5,0,0,0-2.27.53,15.33,15.33,0,0,1-6.9.91,3.8,3.8,0,0,1-2.74-1.34,2.76,2.76,0,0,1-.13-2.32c.23-.9.21-1.07-.16-1.33a11.33,11.33,0,0,0-4.53-1.64c-.76-.16-1.62-.34-2.58-.6a4.62,4.62,0,0,1-3.14-2.31c-.88-1.71-.64-4.17.75-7.75a21.75,21.75,0,0,0,1.46-7.54v0a3.85,3.85,0,0,0-.93-2.24c-4.92-5.13-7.7-10.79-8-16.35a25.5,25.5,0,0,1,.1-3.36,3.41,3.41,0,0,0-6.06-1.07,71.27,71.27,0,0,0-7.06,12.2,27.39,27.39,0,0,0-1.41,3.87,26.69,26.69,0,0,0,6.11,5.61,17.93,17.93,0,0,1,5.27-1.41,11.4,11.4,0,0,1,3.11.09l-.63,1.66.07,0a11.69,11.69,0,0,0-2.44,0,13.44,13.44,0,0,0-3.49.8c4.69,2.7,6.37,3.1,6.38,3.11a.88.88,0,0,1,.68,1.05.87.87,0,0,1-1,.68c-.19,0-2-.47-7.29-3.52A29.58,29.58,0,0,1,632.28,185.77Zm17.22-34a25,25,0,0,0-5.93,3.76,30,30,0,0,0-5,5.61l2.68,3.32c.94-1.21,2.46-3.17,3.53-4.42a41,41,0,0,1,6.24-5.77.81.81,0,0,1,.18-.1l.54-.39Zm.18,5.91a37.58,37.58,0,0,0-3.51,3.52c-.71.84-1.66,2-2.48,3.08a5.39,5.39,0,0,1,4,1.48A61.57,61.57,0,0,1,649.68,157.72Zm2.59-2.05a58.92,58.92,0,0,0-3.15,12.83,6.38,6.38,0,0,1,.09,1.08,24.67,24.67,0,0,0,.37,4.88,23.82,23.82,0,0,0,5.9,11.38c.32.38.61.72.85,1l.22.29a43.8,43.8,0,0,0,5.06,4.45c7.44,5.64,11,5.29,12.71,5.12l.25,0a14,14,0,0,0,2.09-.55c2.21-.68,5.23-1.62,7.45-.74,2.06.82,2.25,2.9,2.42,4.9a8.74,8.74,0,0,0,1,4.09c1.65,2.49,5.9,1.24,8.15.1a10.78,10.78,0,0,0,2.14-1.48c1-.84,2.06-1.7,3.64-1.3a4.69,4.69,0,0,1,2.28,1.62,3.6,3.6,0,0,0,2.92,1.56c1.41,0,1.56-.44,1.84-1.16a3.12,3.12,0,0,1,1-1.54,2.22,2.22,0,0,1,2.62,0,3.09,3.09,0,0,0,1.58.45c.83,0,2.18-1.3,3.12-2.46-1.06-.9-2.94-3-5-7.71a21.27,21.27,0,0,1-1.71-6.86c-.4-3.35-.86-7.16-5.32-14.87-5.23-9.06-11.88-12.9-15.85-15.2-.51-.29-1-.56-1.37-.81s-1.07-.55-1.66-.84l-1.09-.54c-3.71-2-8.62-2.83-14.61-2.52a47.16,47.16,0,0,1,17.36,9.43c10.39,9,16.06,26.54,16.3,27.28a.89.89,0,1,1-1.7.54c0-.17-5.21-16.09-14.32-25.13-.58,1.75-1.74,5.82-1.09,8.65.27,1.16.52,2.16.74,3a27.18,27.18,0,0,1,1,5.64v0a.89.89,0,0,1-1.78,0,24.17,24.17,0,0,0-.9-5l-1.66,1.73a.89.89,0,1,1-1.29-1.23l2.44-2.54c-.1-.42-.21-.87-.31-1.35-.89-3.87,1-9.32,1.39-10.37l0,0a44.32,44.32,0,0,0-10-6.49c1.29,2.37,3,6.25,1.72,8.71a13.82,13.82,0,0,1-3.71,4.08c-1.55,1.32-3,2.56-3.57,4.19a.89.89,0,0,1-1.69-.57c.71-2.09,2.44-3.56,4.11-5,.61-.52,1.2-1,1.73-1.53a19.21,19.21,0,0,0-5.13-1,22.61,22.61,0,0,0-6.18,1.25.89.89,0,1,1-.6-1.67,23.89,23.89,0,0,1,6.8-1.36,22.34,22.34,0,0,1,6.34,1.34,4.86,4.86,0,0,0,.31-.53c1.11-2.22-1.73-7.32-2.82-8.93a1.14,1.14,0,0,1-.1-.19,40.91,40.91,0,0,0-8.88-2.51h0C656.62,152.64,653,155.09,652.27,155.67Zm5.61,35.2a23.5,23.5,0,0,1-1.57,7.87c-1.16,3-1.44,5.11-.83,6.31a2.94,2.94,0,0,0,2,1.39c.92.25,1.72.42,2.49.58a12.89,12.89,0,0,1,5.17,1.92,2.66,2.66,0,0,1,.88,3.23c-.09.36-.2.77-.11.91s.29.35,1.54.56a13.74,13.74,0,0,0,6.1-.86c1.63-.5,2.82-.86,3.7-.37a1.66,1.66,0,0,1,.79,1,4.34,4.34,0,0,1-.24,2.59c-.31,1-.39,1.2.56,1.75a5.56,5.56,0,0,0,2.94.39c1.69-.06,3.77-.13,5.26,1.84a32.72,32.72,0,0,0,8.29-6.56,49.52,49.52,0,0,0,6.4-9.94l-.2-.07c-.65-.16-1,.1-2.07,1a12.47,12.47,0,0,1-2.48,1.7c-3.45,1.74-8.25,2.59-10.44-.7a10.21,10.21,0,0,1-1.32-4.92c-.17-1.91-.31-3-1.3-3.4-1.65-.65-4.32.17-6.27.78a14.4,14.4,0,0,1-2.46.62l-.23,0c-1.94.19-6,.59-14-5.47C659.6,192.32,658.72,191.6,657.88,190.87Z" transform="translate(0 0)"/><path class="cls-1" d="M963,190.35A28.06,28.06,0,0,1,960.42,202a72.83,72.83,0,0,1-7.24,12.5,4.54,4.54,0,0,1-.39.48l3.39,4.21a.89.89,0,0,1,.07,1,30.79,30.79,0,0,1-5.66,6.55,25.63,25.63,0,0,1-7,4.28.89.89,0,0,1-.9-.16l-2.93-2.59a1.24,1.24,0,0,1-.18-.22c-2.57,1.33-7.37,3.1-15.26,3.74-7,.57-12.72-.31-17-2.62l-1-.51c-.7-.34-1.42-.69-1.82-.93s-.84-.49-1.33-.78a41.6,41.6,0,0,1-16.51-15.85c-4.63-8-5.11-12-5.54-15.55a19.36,19.36,0,0,0-1.56-6.34c-2.78-6.2-5-7.44-5.07-7.45a.92.92,0,0,1-.46-.58.93.93,0,0,1,.12-.73c.45-.64,2.81-3.89,5.09-3.92a4.8,4.8,0,0,1,2.41.64c.56.29.58.28.74.16a1.65,1.65,0,0,0,.41-.74c.33-.9.84-2.25,3.46-2.31a5.13,5.13,0,0,1,4.09,1.94,49.68,49.68,0,0,1,6.44-9.89,33.14,33.14,0,0,1,6.05-5.27c1.25-.85,2.08-1.36,2.64-1.66a14,14,0,0,1-1.09-2.53,4,4,0,0,0-.95-1.71c-1.9-2-.41-5.38-.13-5.79a1,1,0,0,1,.68-.4c.51-.06.83.23,1.4.76a14.24,14.24,0,0,0,6.3,3.59c3,.79,6.52.62,9.6.48a34,34,0,0,1,5.25,0c4.76.58,14.67,1.77,22.81,9.07A45.41,45.41,0,0,1,959,175.31a.94.94,0,0,1,.14.26c.58,1.12,1.09,2.25,1.54,3.37A30.75,30.75,0,0,1,963,190.35Zm-2.28,4.88a29.39,29.39,0,0,0-3.1-18.75,16.64,16.64,0,0,0-7.49-1.44c-4.74.1-6.24.93-6.26.93a.89.89,0,0,1-1.21-.31.87.87,0,0,1,.28-1.2c.18-.11,1.87-1.08,7.15-1.19a19.74,19.74,0,0,1,6.2.8,42.77,42.77,0,0,0-8.13-9.84,29.32,29.32,0,0,0-4.77-3.49,14.73,14.73,0,0,1-7,.66c-4.5-.46-6.95-.64-7-.64a.89.89,0,1,1,.12-1.77s2.5.17,7,.64a16.2,16.2,0,0,0,4.52-.11,45,45,0,0,0-14.81-3.92,32.63,32.63,0,0,0-5,0c-3.22.15-6.86.32-10.14-.53a15.73,15.73,0,0,1-6.79-3.76,3,3,0,0,0,.3,2.67,5.71,5.71,0,0,1,1.32,2.35,14.44,14.44,0,0,0,1.56,3.26c.91,1.47,2.11,1.51,4,1.44a7,7,0,0,1,3.9.64c2.18,1.27,1.68,2.81,1.35,3.83a2.84,2.84,0,0,0-.22,1.54,9.5,9.5,0,0,0,2.27-.53,15.33,15.33,0,0,1,6.9-.91,3.8,3.8,0,0,1,2.74,1.34,2.76,2.76,0,0,1,.13,2.32c-.23.9-.21,1.07.16,1.33a11.33,11.33,0,0,0,4.53,1.64c.76.16,1.62.34,2.58.6a4.62,4.62,0,0,1,3.14,2.31c.88,1.71.64,4.17-.75,7.75a21.75,21.75,0,0,0-1.46,7.54v0a3.85,3.85,0,0,0,.93,2.24c4.92,5.13,7.7,10.79,8,16.35a25.5,25.5,0,0,1-.1,3.36,3.41,3.41,0,0,0,6.06,1.07,71.27,71.27,0,0,0,7.06-12.2,27.39,27.39,0,0,0,1.41-3.87,26.69,26.69,0,0,0-6.11-5.61,17.93,17.93,0,0,1-5.27,1.41,11.4,11.4,0,0,1-3.11-.09l.63-1.66-.07,0a11.69,11.69,0,0,0,2.44,0,13.44,13.44,0,0,0,3.49-.8c-4.69-2.7-6.37-3.1-6.38-3.11a.88.88,0,0,1-.68-1.05.87.87,0,0,1,1-.68c.19,0,2,.47,7.29,3.52A29.58,29.58,0,0,1,960.72,195.23Zm-17.22,34a25,25,0,0,0,5.93-3.76,30,30,0,0,0,5-5.61l-2.68-3.32c-.94,1.21-2.46,3.17-3.53,4.42a41,41,0,0,1-6.24,5.77.81.81,0,0,1-.18.1l-.54.39Zm-.18-5.91a37.58,37.58,0,0,0,3.51-3.52c.71-.84,1.66-2,2.48-3.08a5.39,5.39,0,0,1-4-1.48A61.57,61.57,0,0,1,943.32,223.28Zm-2.59,2.05a58.92,58.92,0,0,0,3.15-12.83,6.38,6.38,0,0,1-.09-1.08,24.67,24.67,0,0,0-.37-4.88,23.82,23.82,0,0,0-5.9-11.38c-.32-.38-.61-.72-.85-1l-.22-.29a43.8,43.8,0,0,0-5.06-4.45c-7.44-5.64-11-5.29-12.71-5.12l-.25,0a14,14,0,0,0-2.09.55c-2.21.68-5.23,1.62-7.45.74-2.06-.82-2.25-2.9-2.42-4.9a8.74,8.74,0,0,0-1-4.09c-1.65-2.49-5.9-1.24-8.15-.1a10.78,10.78,0,0,0-2.14,1.48c-1,.84-2.06,1.7-3.64,1.3a4.69,4.69,0,0,1-2.28-1.62,3.6,3.6,0,0,0-2.92-1.56c-1.41,0-1.56.44-1.84,1.16a3.12,3.12,0,0,1-1,1.54,2.22,2.22,0,0,1-2.62,0,3.09,3.09,0,0,0-1.58-.45c-.83,0-2.18,1.3-3.12,2.46,1.06.9,2.94,3,5,7.71a21.27,21.27,0,0,1,1.71,6.86c.4,3.35.86,7.16,5.32,14.87,5.23,9.06,11.88,12.9,15.85,15.2.51.29,1,.56,1.37.81s1.07.55,1.66.84l1.09.54c3.71,2,8.62,2.83,14.61,2.52a47.16,47.16,0,0,1-17.36-9.43c-10.39-9-16.06-26.54-16.3-27.28a.89.89,0,0,1,1.7-.54c0,.17,5.21,16.09,14.32,25.13.58-1.75,1.74-5.82,1.09-8.65-.27-1.16-.52-2.16-.74-3a27.18,27.18,0,0,1-1-5.64v0a.89.89,0,0,1,1.78,0,24.17,24.17,0,0,0,.9,5l1.66-1.73a.89.89,0,1,1,1.29,1.23l-2.44,2.54c.1.42.21.87.31,1.35.89,3.87-1,9.32-1.39,10.37l0,0a44.32,44.32,0,0,0,10,6.49c-1.29-2.37-3-6.25-1.72-8.71a13.82,13.82,0,0,1,3.71-4.08c1.55-1.32,3-2.56,3.57-4.19a.89.89,0,0,1,1.69.57c-.71,2.09-2.44,3.56-4.11,5-.61.52-1.2,1-1.73,1.53a19.21,19.21,0,0,0,5.13,1,22.61,22.61,0,0,0,6.18-1.25.89.89,0,1,1,.6,1.67,23.89,23.89,0,0,1-6.8,1.36,22.34,22.34,0,0,1-6.34-1.34,4.86,4.86,0,0,0-.31.53c-1.11,2.22,1.73,7.32,2.82,8.93a1.14,1.14,0,0,1,.1.19,40.91,40.91,0,0,0,8.88,2.51h0C936.38,228.36,940,225.91,940.73,225.33Zm-5.61-35.2a23.5,23.5,0,0,1,1.57-7.87c1.16-3,1.44-5.11.83-6.31a2.94,2.94,0,0,0-2-1.39c-.92-.25-1.72-.42-2.49-.58a12.89,12.89,0,0,1-5.17-1.92,2.66,2.66,0,0,1-.88-3.23c.09-.36.2-.77.11-.91s-.29-.35-1.54-.56a13.74,13.74,0,0,0-6.1.86c-1.63.5-2.82.86-3.7.37a1.66,1.66,0,0,1-.79-1,4.34,4.34,0,0,1,.24-2.59c.31-1,.39-1.2-.56-1.75a5.56,5.56,0,0,0-2.94-.39c-1.69.06-3.77.13-5.26-1.84a32.72,32.72,0,0,0-8.29,6.56,49.52,49.52,0,0,0-6.4,9.94l.2.07c.65.16,1-.1,2.07-1a12.47,12.47,0,0,1,2.48-1.7c3.45-1.74,8.25-2.59,10.44.7a10.21,10.21,0,0,1,1.32,4.92c.17,1.91.31,3,1.3,3.4,1.65.65,4.32-.17,6.27-.78a14.4,14.4,0,0,1,2.46-.62l.23,0c1.94-.19,6-.59,14,5.47C933.4,188.68,934.28,189.4,935.12,190.13Z" transform="translate(0 0)"/><path class="cls-1" d="M171.65,89A28.06,28.06,0,0,1,160,86.42a72.83,72.83,0,0,1-12.5-7.24,4.54,4.54,0,0,1-.48-.39l-4.21,3.39a.89.89,0,0,1-1,.07,30.79,30.79,0,0,1-6.55-5.66,25.63,25.63,0,0,1-4.28-7,.89.89,0,0,1,.16-.9l2.59-2.93a1.24,1.24,0,0,1,.22-.18c-1.33-2.57-3.1-7.37-3.74-15.26-.57-7,.31-12.72,2.62-17,.13-.23.31-.6.51-1,.34-.7.69-1.42.93-1.82s.49-.84.78-1.33a41.6,41.6,0,0,1,15.85-16.51c8-4.63,12-5.11,15.55-5.54a19.36,19.36,0,0,0,6.34-1.56c6.2-2.78,7.44-5,7.45-5.07a.92.92,0,0,1,.58-.46.93.93,0,0,1,.73.12c.64.45,3.89,2.81,3.92,5.09a4.8,4.8,0,0,1-.64,2.41c-.29.56-.28.58-.16.74a1.65,1.65,0,0,0,.74.41c.9.33,2.25.84,2.31,3.46a5.13,5.13,0,0,1-1.94,4.09,49.68,49.68,0,0,1,9.89,6.44,32.81,32.81,0,0,1,5.27,6.05c.85,1.25,1.36,2.08,1.66,2.64a14,14,0,0,1,2.53-1.09,4,4,0,0,0,1.71-.95c2-1.9,5.38-.41,5.79-.13a1,1,0,0,1,.4.68c.06.51-.23.83-.76,1.4a14.24,14.24,0,0,0-3.59,6.3c-.79,3-.62,6.51-.48,9.6a34,34,0,0,1,0,5.25c-.58,4.76-1.77,14.67-9.07,22.81A45.41,45.41,0,0,1,186.69,85a.94.94,0,0,1-.26.14c-1.12.58-2.25,1.09-3.37,1.54A30.75,30.75,0,0,1,171.65,89Zm-4.88-2.28a29.46,29.46,0,0,0,18.75-3.1A16.64,16.64,0,0,0,187,76.13c-.1-4.74-.93-6.24-.93-6.26a.89.89,0,0,1,.31-1.21.87.87,0,0,1,1.2.28c.11.18,1.08,1.87,1.19,7.16a19.72,19.72,0,0,1-.8,6.19,43,43,0,0,0,9.84-8.12,29.82,29.82,0,0,0,3.49-4.78,14.73,14.73,0,0,1-.66-7c.46-4.49.64-7,.64-7a.89.89,0,1,1,1.77.12s-.17,2.5-.64,7a16.2,16.2,0,0,0,.11,4.52,45,45,0,0,0,3.92-14.81,32.63,32.63,0,0,0,0-4.95c-.15-3.22-.32-6.86.53-10.14a15.73,15.73,0,0,1,3.76-6.79,3,3,0,0,0-2.67.3,5.71,5.71,0,0,1-2.35,1.32,14,14,0,0,0-3.26,1.56c-1.47.91-1.51,2.11-1.44,4a7,7,0,0,1-.64,3.9c-1.27,2.18-2.81,1.68-3.83,1.35a2.94,2.94,0,0,0-1.54-.22,9.5,9.5,0,0,0,.53,2.27,15.33,15.33,0,0,1,.91,6.9,3.8,3.8,0,0,1-1.34,2.74,2.76,2.76,0,0,1-2.32.13c-.9-.23-1.07-.21-1.33.16a11.33,11.33,0,0,0-1.64,4.53c-.16.76-.34,1.62-.6,2.58a4.67,4.67,0,0,1-2.31,3.15c-1.71.87-4.17.63-7.75-.76a21.75,21.75,0,0,0-7.54-1.46h0a3.85,3.85,0,0,0-2.24.93c-5.13,4.92-10.79,7.7-16.35,8a27.34,27.34,0,0,1-3.36-.1,3.41,3.41,0,0,0-1.07,6.06,70.62,70.62,0,0,0,12.2,7.06,27.39,27.39,0,0,0,3.87,1.41,26.69,26.69,0,0,0,5.61-6.11,17.93,17.93,0,0,1-1.41-5.27,11.4,11.4,0,0,1,.09-3.11l1.66.63a.31.31,0,0,0,0-.07,11.69,11.69,0,0,0,0,2.44,13.44,13.44,0,0,0,.8,3.49c2.7-4.7,3.1-6.37,3.11-6.38a.88.88,0,0,1,1.05-.68.87.87,0,0,1,.68,1c0,.19-.47,2-3.52,7.29A29.78,29.78,0,0,1,166.77,86.72Zm-34-17.22a25,25,0,0,0,3.76,5.93,29.64,29.64,0,0,0,5.61,5l3.32-2.68c-1.21-.94-3.17-2.46-4.42-3.53a41,41,0,0,1-5.77-6.24.81.81,0,0,1-.1-.18c-.11-.14-.23-.32-.39-.54Zm5.91-.18a37.58,37.58,0,0,0,3.52,3.51c.84.71,2,1.66,3.08,2.48a5.39,5.39,0,0,1,1.48-4A61.57,61.57,0,0,1,138.72,69.32Zm-2.05-2.58a59.71,59.71,0,0,0,12.83,3.14,6.38,6.38,0,0,1,1.08-.09,25.47,25.47,0,0,0,4.88-.36,23.9,23.9,0,0,0,11.38-5.91c.38-.32.72-.61,1-.85l.29-.22a43.8,43.8,0,0,0,4.45-5.06c5.64-7.44,5.29-11,5.12-12.71l0-.25a14,14,0,0,0-.55-2.09c-.68-2.21-1.62-5.23-.74-7.45.82-2.06,2.9-2.25,4.9-2.42a8.74,8.74,0,0,0,4.09-1c2.49-1.65,1.24-5.9.1-8.15A10.78,10.78,0,0,0,184,21.14c-.84-1-1.7-2.06-1.3-3.64a4.74,4.74,0,0,1,1.62-2.28,3.6,3.6,0,0,0,1.56-2.92c0-1.41-.44-1.56-1.16-1.84a3.12,3.12,0,0,1-1.54-1,2.22,2.22,0,0,1,0-2.62,3.09,3.09,0,0,0,.45-1.58c0-.83-1.3-2.18-2.46-3.12-.9,1.06-3,2.94-7.71,5a21.27,21.27,0,0,1-6.86,1.71c-3.35.4-7.16.86-14.87,5.32-9.06,5.23-12.9,11.88-15.2,15.85-.29.51-.56,1-.81,1.37s-.55,1.07-.84,1.66c-.21.44-.41.84-.54,1.09-2,3.71-2.83,8.62-2.52,14.61a47.16,47.16,0,0,1,9.43-17.36c9-10.39,26.54-16.06,27.28-16.3a.89.89,0,0,1,.54,1.7C168.92,16.88,153,22,144,31.15c1.75.58,5.82,1.74,8.65,1.09,1.16-.27,2.16-.52,3-.74a26.54,26.54,0,0,1,5.64-1h0a.89.89,0,0,1,0,1.78,23.52,23.52,0,0,0-5,.9l1.73,1.66a.89.89,0,0,1-1.23,1.29l-2.54-2.44c-.42.1-.87.21-1.35.31-3.87.89-9.32-1-10.37-1.39l0,0a44.32,44.32,0,0,0-6.49,10c2.37-1.29,6.25-2.95,8.71-1.72a13.82,13.82,0,0,1,4.08,3.71c1.32,1.55,2.56,3,4.19,3.57a.89.89,0,0,1-.57,1.69c-2.09-.71-3.56-2.44-5-4.11-.52-.61-1-1.2-1.53-1.73a19.21,19.21,0,0,0-1,5.13,22.61,22.61,0,0,0,1.25,6.18.89.89,0,1,1-1.67.6,23.89,23.89,0,0,1-1.36-6.8,22.34,22.34,0,0,1,1.34-6.34,4.86,4.86,0,0,0-.53-.31c-2.22-1.11-7.32,1.73-8.93,2.82l-.19.1a40.91,40.91,0,0,0-2.51,8.88v0C133.64,62.38,136.09,66,136.67,66.74Zm35.2-5.62a23.5,23.5,0,0,1,7.87,1.57c3,1.16,5.11,1.44,6.31.83a2.94,2.94,0,0,0,1.39-2c.25-.92.42-1.72.58-2.49a12.89,12.89,0,0,1,1.92-5.17,2.66,2.66,0,0,1,3.23-.88c.36.1.77.2.91.11s.35-.29.56-1.54a13.68,13.68,0,0,0-.86-6.09c-.5-1.64-.86-2.83-.37-3.71a1.63,1.63,0,0,1,1-.79,4.34,4.34,0,0,1,2.59.24c1,.31,1.2.39,1.75-.56a5.56,5.56,0,0,0,.39-2.94c-.06-1.69-.13-3.77,1.84-5.26a32.72,32.72,0,0,0-6.56-8.29,49.52,49.52,0,0,0-9.94-6.4c0,.07-.05.14-.07.2-.16.65.1,1,1,2.07a12.47,12.47,0,0,1,1.7,2.48c1.74,3.45,2.59,8.25-.7,10.44a10.21,10.21,0,0,1-4.92,1.32c-1.91.17-3,.31-3.4,1.3-.65,1.65.17,4.32.78,6.27a14.4,14.4,0,0,1,.62,2.46l0,.23c.19,1.94.59,6-5.47,14C173.32,59.4,172.6,60.28,171.87,61.12Z" transform="translate(0 0)"/><path class="cls-1" d="M420.35,0A28.06,28.06,0,0,1,432,2.58a72.83,72.83,0,0,1,12.5,7.24,4.54,4.54,0,0,1,.48.39l4.21-3.39a.89.89,0,0,1,1-.07,30.79,30.79,0,0,1,6.55,5.66,25.63,25.63,0,0,1,4.28,7,.87.87,0,0,1-.17.9l-2.58,2.93a1.24,1.24,0,0,1-.22.18c1.33,2.57,3.1,7.37,3.74,15.26.57,7-.31,12.72-2.62,17-.13.23-.31.6-.51,1-.34.7-.69,1.42-.93,1.82s-.49.84-.78,1.33a41.6,41.6,0,0,1-15.85,16.51c-8,4.63-12,5.11-15.55,5.54a19.36,19.36,0,0,0-6.34,1.56c-6.2,2.78-7.44,5-7.45,5.07a.92.92,0,0,1-.58.46.93.93,0,0,1-.73-.12c-.64-.45-3.89-2.81-3.92-5.09a4.8,4.8,0,0,1,.64-2.41c.29-.56.28-.58.16-.74a1.65,1.65,0,0,0-.74-.41c-.9-.33-2.25-.84-2.31-3.46a5.13,5.13,0,0,1,1.94-4.09,49.68,49.68,0,0,1-9.89-6.44,32.7,32.7,0,0,1-5.26-6,29.78,29.78,0,0,1-1.67-2.64,14.24,14.24,0,0,1-2.52,1.09,3.92,3.92,0,0,0-1.72,1c-2,1.9-5.38.41-5.79.13A1,1,0,0,1,379,59c-.06-.51.23-.83.76-1.4a14.24,14.24,0,0,0,3.59-6.3c.79-3,.62-6.51.48-9.6a34,34,0,0,1,0-5.25c.58-4.76,1.77-14.67,9.07-22.81A45.41,45.41,0,0,1,405.31,4a.94.94,0,0,1,.26-.14c1.12-.58,2.25-1.09,3.37-1.54A30.75,30.75,0,0,1,420.35,0Zm4.88,2.28a29.46,29.46,0,0,0-18.75,3.1,16.54,16.54,0,0,0-1.43,7.49c.09,4.74.92,6.24.92,6.26a.89.89,0,0,1-.31,1.21.87.87,0,0,1-1.2-.28c-.11-.18-1.08-1.87-1.19-7.16a19.72,19.72,0,0,1,.8-6.19,43,43,0,0,0-9.84,8.12,29.82,29.82,0,0,0-3.49,4.78,14.73,14.73,0,0,1,.66,7c-.46,4.5-.63,7-.64,7a.89.89,0,1,1-1.77-.12s.17-2.5.64-7a16.2,16.2,0,0,0-.11-4.52,45,45,0,0,0-3.92,14.81,32.63,32.63,0,0,0,0,4.95c.15,3.22.32,6.86-.53,10.14a15.73,15.73,0,0,1-3.76,6.79,3,3,0,0,0,2.67-.3,5.71,5.71,0,0,1,2.35-1.32,14,14,0,0,0,3.26-1.56c1.47-.91,1.51-2.11,1.44-4a7,7,0,0,1,.64-3.9c1.27-2.18,2.81-1.68,3.83-1.35a2.94,2.94,0,0,0,1.54.22,9.5,9.5,0,0,0-.53-2.27,15.33,15.33,0,0,1-.91-6.9A3.8,3.8,0,0,1,397,34.44a2.76,2.76,0,0,1,2.32-.13c.9.23,1.07.21,1.33-.16a11.33,11.33,0,0,0,1.64-4.53c.16-.76.34-1.62.6-2.58a4.62,4.62,0,0,1,2.31-3.14c1.71-.88,4.17-.64,7.75.75a21.75,21.75,0,0,0,7.54,1.46h0a3.85,3.85,0,0,0,2.24-.93c5.13-4.92,10.78-7.7,16.35-8a27.28,27.28,0,0,1,3.36.1,3.41,3.41,0,0,0,1.07-6.06,70.62,70.62,0,0,0-12.2-7.06,27.39,27.39,0,0,0-3.87-1.41A26.69,26.69,0,0,0,421.8,8.9a17.93,17.93,0,0,1,1.41,5.27,11.4,11.4,0,0,1-.09,3.11l-1.66-.63a.31.31,0,0,0,0,.07,11.69,11.69,0,0,0,0-2.44,13.44,13.44,0,0,0-.8-3.49c-2.7,4.7-3.1,6.37-3.11,6.38a.88.88,0,0,1-1,.68.87.87,0,0,1-.68-1c0-.19.47-2,3.52-7.29A29.78,29.78,0,0,1,425.23,2.28Zm34,17.22a24.8,24.8,0,0,0-3.77-5.93,29.05,29.05,0,0,0-5.6-5l-3.32,2.68c1.21.94,3.17,2.46,4.42,3.53a41,41,0,0,1,5.77,6.24.81.81,0,0,1,.1.18c.11.14.23.32.38.54Zm-5.91.18a37.58,37.58,0,0,0-3.52-3.51c-.84-.71-2-1.66-3.08-2.48a5.39,5.39,0,0,1-1.48,4A61.57,61.57,0,0,1,453.28,19.68Zm2.05,2.58a59.71,59.71,0,0,0-12.83-3.14,6.38,6.38,0,0,1-1.08.09,25.47,25.47,0,0,0-4.88.36,23.81,23.81,0,0,0-11.37,5.91l-1,.85-.3.22a43.8,43.8,0,0,0-4.45,5.06c-5.64,7.44-5.29,11-5.12,12.71l0,.25a14,14,0,0,0,.55,2.09c.68,2.21,1.62,5.23.74,7.45-.82,2.06-2.9,2.25-4.9,2.42a8.74,8.74,0,0,0-4.09,1c-2.49,1.65-1.24,5.9-.1,8.15A10.78,10.78,0,0,0,408,67.86c.84,1,1.7,2.06,1.3,3.64a4.68,4.68,0,0,1-1.62,2.28,3.6,3.6,0,0,0-1.56,2.92c0,1.41.44,1.56,1.16,1.84a3.12,3.12,0,0,1,1.54,1,2.22,2.22,0,0,1,0,2.62,3,3,0,0,0-.45,1.58c0,.83,1.3,2.18,2.46,3.12.9-1.06,3-2.94,7.71-5a21.27,21.27,0,0,1,6.86-1.71c3.35-.4,7.16-.86,14.87-5.32,9.06-5.23,12.9-11.88,15.2-15.85.29-.51.56-1,.81-1.37s.55-1.07.84-1.66c.21-.44.41-.84.54-1.09,2-3.71,2.83-8.62,2.52-14.61a47.16,47.16,0,0,1-9.43,17.36c-9,10.39-26.54,16.06-27.28,16.3a.89.89,0,0,1-.54-1.7c.17,0,16.09-5.21,25.13-14.32-1.75-.58-5.82-1.74-8.65-1.09-1.16.27-2.16.52-3.05.74a26.54,26.54,0,0,1-5.64,1h0a.89.89,0,0,1,0-1.78,23.52,23.52,0,0,0,5-.9l-1.73-1.66a.89.89,0,0,1,1.23-1.29l2.54,2.44c.43-.1.87-.21,1.35-.31,3.87-.89,9.32,1,10.36,1.39l0,0a44.32,44.32,0,0,0,6.49-10c-2.37,1.29-6.24,2.95-8.71,1.72a13.82,13.82,0,0,1-4.08-3.71c-1.32-1.55-2.56-3-4.19-3.57a.89.89,0,0,1,.57-1.69c2.09.71,3.56,2.44,5,4.11.52.61,1,1.2,1.53,1.73a19.21,19.21,0,0,0,1-5.13,22.61,22.61,0,0,0-1.25-6.18.89.89,0,1,1,1.67-.6,23.89,23.89,0,0,1,1.36,6.8,22.34,22.34,0,0,1-1.34,6.34,4.86,4.86,0,0,0,.53.31c2.22,1.11,7.32-1.73,8.93-2.82l.19-.1a39.8,39.8,0,0,0,2.5-8.88v0C458.36,26.62,455.91,23,455.33,22.26Zm-35.2,5.62a23.5,23.5,0,0,1-7.87-1.57c-3-1.16-5.11-1.44-6.31-.83a2.94,2.94,0,0,0-1.39,2c-.25.92-.42,1.72-.58,2.49a12.89,12.89,0,0,1-1.92,5.17,2.66,2.66,0,0,1-3.23.88c-.36-.1-.77-.2-.91-.11s-.35.29-.56,1.54a13.68,13.68,0,0,0,.86,6.09c.5,1.64.86,2.83.37,3.71a1.63,1.63,0,0,1-1,.79,4.34,4.34,0,0,1-2.59-.24c-1-.31-1.2-.39-1.75.56a5.56,5.56,0,0,0-.39,2.94c.06,1.69.13,3.77-1.84,5.26a32.72,32.72,0,0,0,6.56,8.29,49.52,49.52,0,0,0,9.94,6.4c0-.07,0-.14.07-.2.16-.65-.1-1-.95-2.07a12.47,12.47,0,0,1-1.7-2.48c-1.74-3.45-2.59-8.25.7-10.44a10.21,10.21,0,0,1,4.92-1.32c1.91-.17,3-.31,3.4-1.3.66-1.65-.17-4.32-.78-6.27a14.4,14.4,0,0,1-.62-2.46l0-.23c-.19-1.94-.59-6,5.47-14C418.68,29.6,419.39,28.72,420.13,27.88Z" transform="translate(0 0)"/><path class="cls-1" d="M669.65,89A28.06,28.06,0,0,1,658,86.42a72.83,72.83,0,0,1-12.5-7.24,4.54,4.54,0,0,1-.48-.39l-4.21,3.39a.89.89,0,0,1-1,.07,30.79,30.79,0,0,1-6.55-5.66,25.63,25.63,0,0,1-4.28-7,.89.89,0,0,1,.16-.9l2.59-2.93a1.24,1.24,0,0,1,.22-.18c-1.33-2.57-3.1-7.37-3.74-15.26-.57-7,.31-12.72,2.62-17,.13-.23.31-.6.51-1,.34-.7.69-1.42.93-1.82s.49-.84.78-1.33a41.6,41.6,0,0,1,15.85-16.51c8-4.63,12-5.11,15.55-5.54a19.36,19.36,0,0,0,6.34-1.56c6.2-2.78,7.44-5,7.45-5.07a.89.89,0,0,1,.58-.46.93.93,0,0,1,.73.12c.65.45,3.89,2.81,3.92,5.09a4.8,4.8,0,0,1-.64,2.41c-.29.56-.28.58-.16.74a1.65,1.65,0,0,0,.74.41c.9.33,2.25.84,2.31,3.46a5.13,5.13,0,0,1-1.94,4.09,49.68,49.68,0,0,1,9.89,6.44,32.81,32.81,0,0,1,5.27,6.05c.85,1.25,1.36,2.08,1.66,2.64a14,14,0,0,1,2.53-1.09,4,4,0,0,0,1.71-.95c2-1.9,5.38-.41,5.79-.13a1,1,0,0,1,.4.68c.06.51-.23.83-.76,1.4a14.24,14.24,0,0,0-3.59,6.3c-.79,3-.62,6.51-.48,9.6a34,34,0,0,1,0,5.25c-.58,4.76-1.77,14.67-9.08,22.81A45.22,45.22,0,0,1,684.69,85a.94.94,0,0,1-.26.14c-1.12.58-2.25,1.09-3.37,1.54A30.75,30.75,0,0,1,669.65,89Zm-4.88-2.28a29.46,29.46,0,0,0,18.75-3.1A16.64,16.64,0,0,0,685,76.13c-.1-4.74-.93-6.24-.93-6.26a.89.89,0,0,1,.31-1.21.87.87,0,0,1,1.2.28c.11.18,1.08,1.87,1.19,7.16a19.72,19.72,0,0,1-.8,6.19,43,43,0,0,0,9.84-8.12,29.82,29.82,0,0,0,3.49-4.78,14.73,14.73,0,0,1-.66-7c.46-4.49.63-7,.64-7a.89.89,0,1,1,1.77.12s-.17,2.5-.64,7a16.68,16.68,0,0,0,.1,4.52,44.82,44.82,0,0,0,3.93-14.81,32.63,32.63,0,0,0,0-4.95c-.15-3.22-.32-6.86.53-10.14a15.73,15.73,0,0,1,3.76-6.79,3,3,0,0,0-2.67.3,5.71,5.71,0,0,1-2.35,1.32,14,14,0,0,0-3.26,1.56c-1.47.91-1.51,2.11-1.44,4a7,7,0,0,1-.64,3.9c-1.27,2.18-2.81,1.68-3.83,1.35a2.94,2.94,0,0,0-1.54-.22,9.5,9.5,0,0,0,.53,2.27,15.33,15.33,0,0,1,.91,6.9,3.8,3.8,0,0,1-1.34,2.74,2.76,2.76,0,0,1-2.32.13c-.9-.23-1.07-.21-1.33.16a11.33,11.33,0,0,0-1.64,4.53c-.16.76-.34,1.62-.6,2.58a4.67,4.67,0,0,1-2.31,3.15c-1.71.87-4.17.63-7.75-.76a21.75,21.75,0,0,0-7.54-1.46h0a3.85,3.85,0,0,0-2.24.93c-5.13,4.92-10.78,7.7-16.35,8a27.28,27.28,0,0,1-3.36-.1,3.41,3.41,0,0,0-1.07,6.06,70.62,70.62,0,0,0,12.2,7.06,27.39,27.39,0,0,0,3.87,1.41,26.69,26.69,0,0,0,5.61-6.11,17.93,17.93,0,0,1-1.41-5.27,11.4,11.4,0,0,1,.09-3.11l1.66.63a.31.31,0,0,0,0-.07,11.69,11.69,0,0,0,0,2.44,13,13,0,0,0,.8,3.49c2.7-4.7,3.1-6.37,3.1-6.38a.9.9,0,0,1,1.06-.68.89.89,0,0,1,.69,1c0,.19-.48,2-3.53,7.29A29.78,29.78,0,0,1,664.77,86.72Zm-34-17.22a24.8,24.8,0,0,0,3.77,5.93,29.05,29.05,0,0,0,5.6,5l3.32-2.68c-1.22-.94-3.17-2.46-4.42-3.53a41,41,0,0,1-5.77-6.24.81.81,0,0,1-.1-.18c-.11-.14-.24-.32-.38-.54Zm5.91-.18a37.58,37.58,0,0,0,3.52,3.51c.84.71,2,1.66,3.08,2.48a5.39,5.39,0,0,1,1.48-4A61.57,61.57,0,0,1,636.72,69.32Zm-2.05-2.58a59.71,59.71,0,0,0,12.83,3.14,6.38,6.38,0,0,1,1.08-.09,25.47,25.47,0,0,0,4.88-.36,23.9,23.9,0,0,0,11.38-5.91c.38-.32.72-.61,1-.85l.3-.22a43.8,43.8,0,0,0,4.45-5.06c5.64-7.44,5.29-11,5.12-12.71l0-.25a14,14,0,0,0-.55-2.09c-.69-2.21-1.62-5.23-.74-7.45.82-2.06,2.9-2.25,4.9-2.42a8.74,8.74,0,0,0,4.09-1c2.49-1.65,1.24-5.9.1-8.15A10.78,10.78,0,0,0,682,21.14c-.84-1-1.7-2.06-1.3-3.64a4.68,4.68,0,0,1,1.62-2.28,3.6,3.6,0,0,0,1.56-2.92c0-1.41-.44-1.56-1.16-1.84a3.12,3.12,0,0,1-1.54-1,2.22,2.22,0,0,1,0-2.62,3.09,3.09,0,0,0,.45-1.58c0-.83-1.3-2.18-2.46-3.12-.9,1.06-3,2.94-7.71,5a21.27,21.27,0,0,1-6.86,1.71c-3.35.4-7.16.86-14.87,5.32a39.39,39.39,0,0,0-15.2,15.85c-.29.51-.56,1-.81,1.37s-.55,1.07-.84,1.66c-.21.44-.41.84-.54,1.09-2,3.71-2.83,8.62-2.52,14.61a47.16,47.16,0,0,1,9.43-17.36c9-10.39,26.54-16.06,27.28-16.3a.89.89,0,1,1,.54,1.7C666.92,16.88,651,22,642,31.15c1.75.58,5.82,1.74,8.65,1.09,1.16-.27,2.16-.52,3-.74a26.54,26.54,0,0,1,5.64-1h0a.89.89,0,0,1,0,1.78,23.52,23.52,0,0,0-5,.9l1.73,1.66a.89.89,0,1,1-1.23,1.29l-2.54-2.44c-.43.1-.87.21-1.35.31-3.87.89-9.32-1-10.36-1.39l0,0a44.32,44.32,0,0,0-6.49,10c2.37-1.29,6.24-2.95,8.71-1.72a13.82,13.82,0,0,1,4.08,3.71c1.32,1.55,2.56,3,4.19,3.57a.89.89,0,1,1-.57,1.69c-2.09-.71-3.56-2.44-5-4.11-.52-.61-1-1.2-1.53-1.73a19.21,19.21,0,0,0-1,5.13,22.61,22.61,0,0,0,1.25,6.18.89.89,0,1,1-1.67.6,23.89,23.89,0,0,1-1.36-6.8,22.34,22.34,0,0,1,1.34-6.34,4.17,4.17,0,0,0-.54-.31c-2.21-1.11-7.31,1.73-8.92,2.82l-.19.1a40.91,40.91,0,0,0-2.51,8.88v0C631.64,62.38,634.09,66,634.67,66.74Zm35.2-5.62a23.5,23.5,0,0,1,7.87,1.57c3,1.16,5.11,1.44,6.31.83a2.94,2.94,0,0,0,1.39-2c.25-.92.42-1.72.58-2.49a12.89,12.89,0,0,1,1.92-5.17,2.66,2.66,0,0,1,3.23-.88c.36.1.77.2.91.11s.35-.29.56-1.54a13.68,13.68,0,0,0-.86-6.09c-.5-1.64-.86-2.83-.37-3.71a1.63,1.63,0,0,1,1-.79,4.3,4.3,0,0,1,2.58.24c1,.31,1.21.39,1.76-.56a5.56,5.56,0,0,0,.39-2.94c-.06-1.69-.13-3.77,1.84-5.26a32.72,32.72,0,0,0-6.56-8.29,49.52,49.52,0,0,0-9.94-6.4c0,.07,0,.14-.07.2-.16.65.1,1,.95,2.07a12.47,12.47,0,0,1,1.7,2.48c1.74,3.45,2.59,8.25-.7,10.44a10.21,10.21,0,0,1-4.92,1.32c-1.91.17-3,.31-3.4,1.3-.66,1.65.17,4.32.78,6.27a14.4,14.4,0,0,1,.62,2.46l0,.23c.19,1.94.59,6-5.47,14C671.32,59.4,670.6,60.28,669.87,61.12Z" transform="translate(0 0)"/><path class="cls-1" d="M918.35,0A28.06,28.06,0,0,1,930,2.58a72.83,72.83,0,0,1,12.5,7.24,4.54,4.54,0,0,1,.48.39l4.21-3.39a.89.89,0,0,1,1-.07,30.79,30.79,0,0,1,6.55,5.66,25.63,25.63,0,0,1,4.28,7,.89.89,0,0,1-.16.9l-2.59,2.93a1.24,1.24,0,0,1-.22.18c1.33,2.57,3.1,7.37,3.74,15.26.57,7-.31,12.72-2.62,17-.13.23-.31.6-.51,1-.34.7-.69,1.42-.93,1.82s-.49.84-.78,1.33a41.6,41.6,0,0,1-15.85,16.51c-8,4.63-12,5.11-15.55,5.54a19.36,19.36,0,0,0-6.34,1.56c-6.2,2.78-7.44,5-7.45,5.07a.89.89,0,0,1-.58.46.93.93,0,0,1-.73-.12c-.65-.45-3.89-2.81-3.92-5.09a4.8,4.8,0,0,1,.64-2.41c.29-.56.28-.58.16-.74a1.65,1.65,0,0,0-.74-.41c-.9-.33-2.25-.84-2.31-3.46a5.13,5.13,0,0,1,1.94-4.09,49.68,49.68,0,0,1-9.89-6.44,32.81,32.81,0,0,1-5.27-6c-.85-1.25-1.36-2.08-1.66-2.64a14,14,0,0,1-2.53,1.09,4,4,0,0,0-1.71,1c-2,1.9-5.38.41-5.79.13A1,1,0,0,1,877,59c-.06-.51.23-.83.76-1.4a14.24,14.24,0,0,0,3.59-6.3c.79-3,.62-6.51.48-9.6a34,34,0,0,1,0-5.25c.58-4.76,1.77-14.67,9.08-22.81A45.22,45.22,0,0,1,903.31,4a.94.94,0,0,1,.26-.14c1.12-.58,2.25-1.09,3.37-1.54A30.75,30.75,0,0,1,918.35,0Zm4.88,2.28a29.46,29.46,0,0,0-18.75,3.1A16.64,16.64,0,0,0,903,12.87c.1,4.74.93,6.24.93,6.26a.89.89,0,0,1-.31,1.21.87.87,0,0,1-1.2-.28c-.11-.18-1.08-1.87-1.19-7.16a19.72,19.72,0,0,1,.8-6.19,43,43,0,0,0-9.84,8.12,29.82,29.82,0,0,0-3.49,4.78,14.73,14.73,0,0,1,.66,7c-.46,4.5-.63,7-.64,7a.89.89,0,1,1-1.77-.12s.17-2.5.64-7a16.68,16.68,0,0,0-.1-4.52,44.82,44.82,0,0,0-3.93,14.81,32.63,32.63,0,0,0,0,4.95c.15,3.22.32,6.86-.53,10.14a15.73,15.73,0,0,1-3.76,6.79,3,3,0,0,0,2.67-.3,5.71,5.71,0,0,1,2.35-1.32,14,14,0,0,0,3.26-1.56c1.47-.91,1.51-2.11,1.44-4a7,7,0,0,1,.64-3.9c1.27-2.18,2.81-1.68,3.83-1.35a2.94,2.94,0,0,0,1.54.22,9.5,9.5,0,0,0-.53-2.27,15.33,15.33,0,0,1-.91-6.9A3.8,3.8,0,0,1,895,34.44a2.76,2.76,0,0,1,2.32-.13c.9.23,1.07.21,1.33-.16a11.33,11.33,0,0,0,1.64-4.53c.16-.76.34-1.62.6-2.58a4.62,4.62,0,0,1,2.31-3.14c1.71-.88,4.17-.64,7.75.75a21.75,21.75,0,0,0,7.54,1.46h0a3.85,3.85,0,0,0,2.24-.93c5.13-4.92,10.78-7.7,16.35-8a27.28,27.28,0,0,1,3.36.1,3.41,3.41,0,0,0,1.07-6.06,70.62,70.62,0,0,0-12.2-7.06,27.39,27.39,0,0,0-3.87-1.41A26.69,26.69,0,0,0,919.8,8.9a17.93,17.93,0,0,1,1.41,5.27,11.4,11.4,0,0,1-.09,3.11l-1.66-.63a.31.31,0,0,0,0,.07,11.69,11.69,0,0,0,0-2.44,13,13,0,0,0-.8-3.49c-2.7,4.7-3.1,6.37-3.1,6.38a.9.9,0,0,1-1.06.68.89.89,0,0,1-.69-1c0-.19.48-2,3.53-7.29A29.78,29.78,0,0,1,923.23,2.28Zm34,17.22a24.8,24.8,0,0,0-3.77-5.93,29.05,29.05,0,0,0-5.6-5l-3.32,2.68c1.22.94,3.17,2.46,4.42,3.53a41,41,0,0,1,5.77,6.24.81.81,0,0,1,.1.18c.11.14.24.32.38.54Zm-5.91.18a37.58,37.58,0,0,0-3.52-3.51c-.84-.71-2-1.66-3.08-2.48a5.39,5.39,0,0,1-1.48,4A61.57,61.57,0,0,1,951.28,19.68Zm2.05,2.58a59.71,59.71,0,0,0-12.83-3.14,6.38,6.38,0,0,1-1.08.09,25.47,25.47,0,0,0-4.88.36,23.9,23.9,0,0,0-11.38,5.91c-.38.32-.72.61-1,.85l-.3.22a43.8,43.8,0,0,0-4.45,5.06c-5.64,7.44-5.29,11-5.12,12.71l0,.25a14,14,0,0,0,.55,2.09c.69,2.21,1.62,5.23.74,7.45-.82,2.06-2.9,2.25-4.9,2.42a8.74,8.74,0,0,0-4.09,1c-2.49,1.65-1.24,5.9-.1,8.15A10.78,10.78,0,0,0,906,67.86c.84,1,1.7,2.06,1.3,3.64a4.68,4.68,0,0,1-1.62,2.28,3.6,3.6,0,0,0-1.56,2.92c0,1.41.44,1.56,1.16,1.84a3.12,3.12,0,0,1,1.54,1,2.22,2.22,0,0,1,0,2.62,3.09,3.09,0,0,0-.45,1.58c0,.83,1.3,2.18,2.46,3.12.9-1.06,3-2.94,7.71-5a21.27,21.27,0,0,1,6.86-1.71c3.35-.4,7.16-.86,14.87-5.32a39.39,39.39,0,0,0,15.2-15.85c.29-.51.56-1,.81-1.37s.55-1.07.84-1.66c.21-.44.41-.84.54-1.09,2-3.71,2.83-8.62,2.52-14.61a47.16,47.16,0,0,1-9.43,17.36c-9,10.39-26.54,16.06-27.28,16.3a.89.89,0,0,1-.54-1.7c.17,0,16.09-5.21,25.13-14.32-1.75-.58-5.82-1.74-8.65-1.09-1.16.27-2.16.52-3,.74a26.54,26.54,0,0,1-5.64,1h0a.89.89,0,0,1,0-1.78,23.52,23.52,0,0,0,5-.9l-1.73-1.66a.89.89,0,1,1,1.23-1.29l2.54,2.44c.43-.1.87-.21,1.35-.31,3.87-.89,9.32,1,10.36,1.39l0,0a44.32,44.32,0,0,0,6.49-10c-2.37,1.29-6.24,2.95-8.71,1.72a13.82,13.82,0,0,1-4.08-3.71c-1.32-1.55-2.56-3-4.19-3.57a.89.89,0,0,1,.57-1.69c2.09.71,3.56,2.44,5,4.11.52.61,1,1.2,1.53,1.73a19.21,19.21,0,0,0,1-5.13,22.61,22.61,0,0,0-1.25-6.18.89.89,0,1,1,1.67-.6,23.89,23.89,0,0,1,1.36,6.8,22.34,22.34,0,0,1-1.34,6.34,4.17,4.17,0,0,0,.54.31c2.21,1.11,7.31-1.73,8.92-2.82l.19-.1a40.91,40.91,0,0,0,2.51-8.88v0C956.36,26.62,953.91,23,953.33,22.26Zm-35.2,5.62a23.5,23.5,0,0,1-7.87-1.57c-3-1.16-5.11-1.44-6.31-.83a2.94,2.94,0,0,0-1.39,2c-.25.92-.42,1.72-.58,2.49a12.89,12.89,0,0,1-1.92,5.17,2.66,2.66,0,0,1-3.23.88c-.36-.1-.77-.2-.91-.11s-.35.29-.56,1.54a13.68,13.68,0,0,0,.86,6.09c.5,1.64.86,2.83.37,3.71a1.63,1.63,0,0,1-1,.79,4.3,4.3,0,0,1-2.58-.24c-1-.31-1.21-.39-1.76.56a5.56,5.56,0,0,0-.39,2.94c.06,1.69.13,3.77-1.84,5.26a32.72,32.72,0,0,0,6.56,8.29,49.52,49.52,0,0,0,9.94,6.4c0-.07,0-.14.07-.2.16-.65-.1-1-.95-2.07a12.47,12.47,0,0,1-1.7-2.48c-1.74-3.45-2.59-8.25.7-10.44a10.21,10.21,0,0,1,4.92-1.32c1.91-.17,3-.31,3.4-1.3.66-1.65-.17-4.32-.78-6.27a14.4,14.4,0,0,1-.62-2.46l0-.23c-.19-1.94-.59-6,5.47-14C916.68,29.6,917.4,28.72,918.13,27.88Z" transform="translate(0 0)"/><path class="cls-1" d="M1167.65,89A28.06,28.06,0,0,1,1156,86.42a72.83,72.83,0,0,1-12.5-7.24,4.54,4.54,0,0,1-.48-.39l-4.21,3.39a.89.89,0,0,1-1,.07,30.79,30.79,0,0,1-6.55-5.66,25.63,25.63,0,0,1-4.28-7,.87.87,0,0,1,.17-.9l2.58-2.93a1.24,1.24,0,0,1,.22-.18c-1.33-2.57-3.1-7.37-3.74-15.26-.57-7,.31-12.72,2.62-17,.13-.23.31-.6.51-1,.34-.7.69-1.42.93-1.82s.49-.84.78-1.33a41.6,41.6,0,0,1,15.85-16.51c8-4.63,12-5.11,15.55-5.54a19.36,19.36,0,0,0,6.34-1.56c6.2-2.78,7.44-5,7.45-5.07a.92.92,0,0,1,.58-.46.93.93,0,0,1,.73.12c.64.45,3.89,2.81,3.92,5.09a4.8,4.8,0,0,1-.64,2.41c-.29.56-.28.58-.16.74a1.65,1.65,0,0,0,.74.41c.9.33,2.25.84,2.31,3.46a5.13,5.13,0,0,1-1.94,4.09,49.68,49.68,0,0,1,9.89,6.44,32.81,32.81,0,0,1,5.27,6.05c.85,1.25,1.36,2.08,1.66,2.64a14,14,0,0,1,2.53-1.09,3.94,3.94,0,0,0,1.71-.95c2-1.9,5.38-.41,5.79-.13a1,1,0,0,1,.4.68c.06.51-.23.83-.76,1.4a14.24,14.24,0,0,0-3.59,6.3c-.79,3-.62,6.51-.48,9.6a35.33,35.33,0,0,1,0,5.25c-.58,4.76-1.77,14.67-9.07,22.81A45.41,45.41,0,0,1,1182.69,85a.94.94,0,0,1-.26.14c-1.12.58-2.25,1.09-3.37,1.54A30.75,30.75,0,0,1,1167.65,89Zm-4.88-2.28a29.46,29.46,0,0,0,18.75-3.1,16.54,16.54,0,0,0,1.43-7.49c-.09-4.74-.92-6.24-.92-6.26a.89.89,0,0,1,.31-1.21.87.87,0,0,1,1.2.28c.11.18,1.08,1.87,1.19,7.16a19.72,19.72,0,0,1-.8,6.19,43,43,0,0,0,9.84-8.12,29.82,29.82,0,0,0,3.49-4.78,14.73,14.73,0,0,1-.66-7c.46-4.49.63-7,.64-7a.89.89,0,1,1,1.77.12s-.17,2.5-.64,7a16.2,16.2,0,0,0,.11,4.52,45,45,0,0,0,3.92-14.81,32.63,32.63,0,0,0,0-4.95c-.15-3.22-.32-6.86.53-10.14a15.73,15.73,0,0,1,3.76-6.79,3,3,0,0,0-2.67.3,5.71,5.71,0,0,1-2.35,1.32,14,14,0,0,0-3.26,1.56c-1.47.91-1.51,2.11-1.44,4a7,7,0,0,1-.64,3.9c-1.27,2.18-2.81,1.68-3.83,1.35a2.93,2.93,0,0,0-1.54-.22,9.5,9.5,0,0,0,.53,2.27,15.33,15.33,0,0,1,.91,6.9,3.8,3.8,0,0,1-1.34,2.74,2.76,2.76,0,0,1-2.32.13c-.9-.23-1.07-.21-1.33.16a11.33,11.33,0,0,0-1.64,4.53c-.16.76-.34,1.62-.6,2.58a4.67,4.67,0,0,1-2.31,3.15c-1.71.87-4.17.63-7.75-.76a21.75,21.75,0,0,0-7.54-1.46h0a3.85,3.85,0,0,0-2.24.93c-5.13,4.92-10.79,7.7-16.36,8a27.24,27.24,0,0,1-3.35-.1,3.41,3.41,0,0,0-1.07,6.06,70.62,70.62,0,0,0,12.2,7.06,27.39,27.39,0,0,0,3.87,1.41,26.69,26.69,0,0,0,5.61-6.11,17.93,17.93,0,0,1-1.41-5.27,11.4,11.4,0,0,1,.09-3.11l1.66.63a.31.31,0,0,0,0-.07,11.69,11.69,0,0,0,0,2.44,13.44,13.44,0,0,0,.8,3.49c2.7-4.7,3.1-6.37,3.1-6.38a.9.9,0,0,1,1.06-.68.87.87,0,0,1,.68,1c0,.19-.47,2-3.52,7.29A29.78,29.78,0,0,1,1162.77,86.72Zm-34-17.22a25,25,0,0,0,3.76,5.93,29.64,29.64,0,0,0,5.61,5l3.32-2.68c-1.21-.94-3.17-2.46-4.42-3.53a41,41,0,0,1-5.77-6.24.81.81,0,0,1-.1-.18c-.11-.14-.23-.32-.38-.54Zm5.91-.18a37.58,37.58,0,0,0,3.52,3.51c.84.71,2,1.66,3.08,2.48a5.39,5.39,0,0,1,1.48-4A61.57,61.57,0,0,1,1134.72,69.32Zm-2-2.58a59.88,59.88,0,0,0,12.83,3.14,6.38,6.38,0,0,1,1.08-.09,25.47,25.47,0,0,0,4.88-.36,23.81,23.81,0,0,0,11.37-5.91c.39-.32.73-.61,1-.85l.29-.22a43.8,43.8,0,0,0,4.45-5.06c5.64-7.44,5.29-11,5.12-12.71l0-.25a14,14,0,0,0-.55-2.09c-.68-2.21-1.62-5.23-.74-7.45.82-2.06,2.9-2.25,4.9-2.42a8.74,8.74,0,0,0,4.09-1c2.49-1.65,1.24-5.9.1-8.15a10.78,10.78,0,0,0-1.48-2.14c-.84-1-1.7-2.06-1.3-3.64a4.68,4.68,0,0,1,1.62-2.28,3.6,3.6,0,0,0,1.56-2.92c0-1.41-.44-1.56-1.16-1.84a3.12,3.12,0,0,1-1.54-1,2.22,2.22,0,0,1,0-2.62,3.09,3.09,0,0,0,.45-1.58c0-.83-1.3-2.18-2.46-3.12-.9,1.06-3,2.94-7.71,5a21.27,21.27,0,0,1-6.86,1.71c-3.35.4-7.16.86-14.87,5.32-9.06,5.23-12.9,11.88-15.2,15.85-.29.51-.56,1-.81,1.37s-.55,1.07-.84,1.66c-.21.44-.41.84-.54,1.09-2,3.71-2.83,8.62-2.52,14.61a47.16,47.16,0,0,1,9.43-17.36c9-10.39,26.54-16.06,27.28-16.3a.89.89,0,1,1,.54,1.7c-.17.05-16.09,5.21-25.13,14.32,1.75.58,5.82,1.74,8.65,1.09,1.16-.27,2.16-.52,3.05-.74a26.54,26.54,0,0,1,5.64-1h0a.89.89,0,0,1,0,1.78,23.52,23.52,0,0,0-5,.9l1.73,1.66a.89.89,0,0,1-1.23,1.29l-2.54-2.44c-.42.1-.87.21-1.35.31-3.87.89-9.32-1-10.37-1.39l0,0a43.91,43.91,0,0,0-6.48,10c2.37-1.29,6.24-2.95,8.7-1.72a13.82,13.82,0,0,1,4.08,3.71c1.32,1.55,2.56,3,4.19,3.57a.89.89,0,1,1-.57,1.69c-2.09-.71-3.56-2.44-5-4.11-.52-.61-1-1.2-1.53-1.73a19.21,19.21,0,0,0-1,5.13,22.61,22.61,0,0,0,1.25,6.18.89.89,0,1,1-1.67.6,23.89,23.89,0,0,1-1.36-6.8,22.34,22.34,0,0,1,1.34-6.34,4.17,4.17,0,0,0-.54-.31c-2.21-1.11-7.31,1.73-8.92,2.82l-.19.1a40.91,40.91,0,0,0-2.51,8.88v0C1129.64,62.38,1132.09,66,1132.67,66.74Zm35.2-5.62a23.5,23.5,0,0,1,7.87,1.57c3,1.16,5.11,1.44,6.31.83a2.94,2.94,0,0,0,1.39-2c.25-.92.42-1.72.58-2.49a12.89,12.89,0,0,1,1.92-5.17,2.66,2.66,0,0,1,3.23-.88c.36.1.77.2.91.11s.35-.29.56-1.54a13.68,13.68,0,0,0-.86-6.09c-.5-1.64-.86-2.83-.37-3.71a1.63,1.63,0,0,1,1-.79,4.3,4.3,0,0,1,2.58.24c1,.31,1.21.39,1.76-.56a5.56,5.56,0,0,0,.39-2.94c-.06-1.69-.13-3.77,1.84-5.26a32.72,32.72,0,0,0-6.56-8.29,49.52,49.52,0,0,0-9.94-6.4c0,.07,0,.14-.07.2-.16.65.1,1,1,2.07a12.9,12.9,0,0,1,1.7,2.48c1.74,3.45,2.59,8.25-.7,10.44a10.21,10.21,0,0,1-4.92,1.32c-1.91.17-3,.31-3.4,1.3-.66,1.65.17,4.32.78,6.27a14.4,14.4,0,0,1,.62,2.46l0,.23c.19,1.94.59,6-5.47,14C1169.32,59.4,1168.6,60.28,1167.87,61.12Z" transform="translate(0 0)"/><path class="cls-1" d="M338,104.35A28.06,28.06,0,0,1,335.42,116a72.83,72.83,0,0,1-7.24,12.5,4.54,4.54,0,0,1-.39.48l3.39,4.21a.89.89,0,0,1,.07,1,30.79,30.79,0,0,1-5.66,6.55,25.63,25.63,0,0,1-6.95,4.28.89.89,0,0,1-.9-.16l-2.93-2.59a1.24,1.24,0,0,1-.18-.22c-2.57,1.33-7.37,3.1-15.26,3.74-7,.57-12.72-.31-17-2.62-.23-.13-.6-.31-1-.51-.7-.34-1.42-.69-1.82-.93s-.84-.49-1.33-.78a41.6,41.6,0,0,1-16.51-15.85c-4.63-8-5.11-12-5.54-15.55a19.36,19.36,0,0,0-1.56-6.34c-2.78-6.2-5.05-7.44-5.07-7.45a.92.92,0,0,1-.46-.58.93.93,0,0,1,.12-.73c.45-.64,2.81-3.89,5.09-3.92a4.8,4.8,0,0,1,2.41.64c.56.29.58.28.74.16a1.75,1.75,0,0,0,.41-.74c.33-.9.84-2.25,3.46-2.31a5.13,5.13,0,0,1,4.09,1.94,49.68,49.68,0,0,1,6.44-9.89,33.14,33.14,0,0,1,6-5.27c1.25-.85,2.08-1.36,2.64-1.66a14,14,0,0,1-1.09-2.53,3.94,3.94,0,0,0-.95-1.71c-1.9-2-.41-5.38-.13-5.79A1,1,0,0,1,279,63c.51-.06.83.23,1.4.76a14.24,14.24,0,0,0,6.3,3.59c3,.79,6.51.62,9.6.48a35.33,35.33,0,0,1,5.25,0c4.76.58,14.67,1.77,22.81,9.07A45.41,45.41,0,0,1,334,89.31a.94.94,0,0,1,.14.26c.58,1.12,1.09,2.25,1.54,3.37A30.75,30.75,0,0,1,338,104.35Zm-2.28,4.88a29.46,29.46,0,0,0-3.1-18.75,16.54,16.54,0,0,0-7.49-1.43c-4.74.09-6.24.92-6.26.92a.89.89,0,0,1-1.21-.31.87.87,0,0,1,.28-1.2c.18-.11,1.87-1.08,7.16-1.19a19.72,19.72,0,0,1,6.19.8,43,43,0,0,0-8.12-9.84,29.82,29.82,0,0,0-4.78-3.49,14.73,14.73,0,0,1-7,.66c-4.5-.46-6.95-.63-7-.64a.89.89,0,1,1,.12-1.77s2.5.17,7,.64a16.2,16.2,0,0,0,4.52-.11,45,45,0,0,0-14.81-3.92,32.63,32.63,0,0,0-4.95,0c-3.22.15-6.86.32-10.14-.53a15.73,15.73,0,0,1-6.79-3.76,3,3,0,0,0,.3,2.67,5.71,5.71,0,0,1,1.32,2.35,14.44,14.44,0,0,0,1.56,3.26c.91,1.47,2.11,1.51,4,1.44a7,7,0,0,1,3.9.64c2.18,1.27,1.68,2.81,1.35,3.83a2.93,2.93,0,0,0-.22,1.54,9.5,9.5,0,0,0,2.27-.53,15.33,15.33,0,0,1,6.9-.91A3.8,3.8,0,0,1,303.56,81a2.76,2.76,0,0,1,.13,2.32c-.23.9-.21,1.07.16,1.33a11.28,11.28,0,0,0,4.53,1.64c.76.16,1.62.34,2.58.6a4.64,4.64,0,0,1,3.15,2.31c.87,1.71.63,4.17-.76,7.75a21.75,21.75,0,0,0-1.46,7.54v0a3.85,3.85,0,0,0,.93,2.24c4.92,5.13,7.7,10.79,8,16.36a23.79,23.79,0,0,1-.1,3.35,3.41,3.41,0,0,0,6.06,1.07,71.27,71.27,0,0,0,7.06-12.2,27.39,27.39,0,0,0,1.41-3.87,26.69,26.69,0,0,0-6.11-5.61,17.93,17.93,0,0,1-5.27,1.41,11.3,11.3,0,0,1-3.1-.09l.62-1.66-.07,0a11.69,11.69,0,0,0,2.44,0,13.26,13.26,0,0,0,3.48-.8c-4.68-2.7-6.36-3.1-6.37-3.1a.9.9,0,0,1-.68-1.06.87.87,0,0,1,1-.68c.19,0,2,.46,7.29,3.52A29.78,29.78,0,0,1,335.72,109.23Zm-17.22,34a25,25,0,0,0,5.93-3.76,30,30,0,0,0,5-5.61l-2.68-3.32c-.94,1.21-2.46,3.17-3.53,4.42a41,41,0,0,1-6.24,5.77.81.81,0,0,1-.18.1l-.54.39Zm-.18-5.91a37.58,37.58,0,0,0,3.51-3.52c.72-.84,1.66-2,2.48-3.08a5.39,5.39,0,0,1-4-1.48A61.57,61.57,0,0,1,318.32,137.28Zm-2.59,2.05a58.92,58.92,0,0,0,3.15-12.83,6.38,6.38,0,0,1-.09-1.08,24.67,24.67,0,0,0-.37-4.88,23.81,23.81,0,0,0-5.9-11.37l-.85-1-.22-.3a44.65,44.65,0,0,0-5.06-4.45c-7.44-5.64-11-5.29-12.71-5.12l-.25,0a14,14,0,0,0-2.09.55c-2.21.68-5.23,1.62-7.45.74-2.06-.82-2.25-2.9-2.43-4.9a8.61,8.61,0,0,0-1-4.09c-1.65-2.49-5.9-1.24-8.15-.1A11.08,11.08,0,0,0,270.14,92c-1,.84-2.06,1.7-3.64,1.3a4.7,4.7,0,0,1-2.29-1.62,3.57,3.57,0,0,0-2.91-1.56c-1.41,0-1.56.44-1.84,1.16a3.12,3.12,0,0,1-1,1.54,2.22,2.22,0,0,1-2.62,0,3.09,3.09,0,0,0-1.58-.45c-.83,0-2.18,1.3-3.12,2.46,1.06.9,2.94,3,5,7.71a21.27,21.27,0,0,1,1.71,6.86c.4,3.35.86,7.16,5.32,14.87,5.23,9.06,11.88,12.9,15.85,15.2.51.29,1,.56,1.37.81s1.07.55,1.67.84l1.08.54c3.71,2,8.62,2.83,14.61,2.52a47.16,47.16,0,0,1-17.36-9.43c-10.39-9-16.06-26.54-16.3-27.28a.89.89,0,0,1,1.7-.54c.05.17,5.21,16.09,14.32,25.13.58-1.75,1.74-5.82,1.09-8.65-.27-1.16-.52-2.16-.74-3a27.15,27.15,0,0,1-1-5.65v0a.89.89,0,0,1,1.78,0,24.17,24.17,0,0,0,.9,5l1.66-1.73a.89.89,0,0,1,1.29,1.23l-2.44,2.54c.1.42.21.87.31,1.35.89,3.87-1,9.32-1.39,10.37l0,0a44.32,44.32,0,0,0,10,6.49c-1.29-2.37-2.95-6.25-1.72-8.71a13.69,13.69,0,0,1,3.71-4.08c1.55-1.32,3-2.56,3.57-4.19a.89.89,0,1,1,1.69.57c-.71,2.09-2.44,3.56-4.11,5-.61.52-1.2,1-1.73,1.53a19.21,19.21,0,0,0,5.13,1,22.7,22.7,0,0,0,6.18-1.25.89.89,0,1,1,.6,1.67,23.89,23.89,0,0,1-6.8,1.36,22.34,22.34,0,0,1-6.34-1.34,4.86,4.86,0,0,0-.31.53c-1.11,2.22,1.74,7.32,2.82,8.93a1.14,1.14,0,0,1,.1.19,40.91,40.91,0,0,0,8.88,2.51h0C311.38,142.36,315,139.91,315.73,139.33Zm-5.61-35.2a23.75,23.75,0,0,1,1.57-7.87c1.16-3,1.44-5.11.83-6.31a2.94,2.94,0,0,0-2-1.39c-.92-.25-1.72-.42-2.49-.58a12.89,12.89,0,0,1-5.17-1.92,2.66,2.66,0,0,1-.88-3.23c.09-.36.2-.77.11-.91s-.29-.35-1.53-.56a13.77,13.77,0,0,0-6.11.86c-1.63.5-2.82.86-3.7.37a1.63,1.63,0,0,1-.79-1,4.3,4.3,0,0,1,.24-2.58c.31-1,.39-1.21-.56-1.76a5.56,5.56,0,0,0-2.94-.39c-1.69.06-3.77.13-5.26-1.84a32.72,32.72,0,0,0-8.29,6.56,49.06,49.06,0,0,0-6.4,9.94l.2.07c.65.16,1-.1,2.07-1a12.9,12.9,0,0,1,2.48-1.7c3.45-1.74,8.25-2.59,10.44.7a10.21,10.21,0,0,1,1.32,4.92c.17,1.91.31,3,1.3,3.4,1.65.66,4.32-.17,6.27-.78a14.4,14.4,0,0,1,2.46-.62l.23,0c1.94-.19,6-.59,14,5.47C308.4,102.68,309.28,103.39,310.12,104.13Z" transform="translate(0 0)"/><path class="cls-1" d="M587,104.35A28.06,28.06,0,0,1,584.42,116a72.83,72.83,0,0,1-7.24,12.5,4.54,4.54,0,0,1-.39.48l3.39,4.21a.89.89,0,0,1,.07,1,30.79,30.79,0,0,1-5.66,6.55,25.63,25.63,0,0,1-7,4.28.89.89,0,0,1-.9-.16l-2.93-2.59a1.24,1.24,0,0,1-.18-.22c-2.57,1.33-7.37,3.1-15.26,3.74-7,.57-12.72-.31-17-2.62l-1-.51c-.7-.34-1.42-.69-1.82-.93s-.84-.49-1.33-.78a41.6,41.6,0,0,1-16.51-15.85c-4.63-8-5.11-12-5.54-15.55a19.36,19.36,0,0,0-1.56-6.34c-2.78-6.2-5.05-7.44-5.07-7.45a.92.92,0,0,1-.46-.58.93.93,0,0,1,.12-.73c.45-.64,2.81-3.89,5.09-3.92a4.8,4.8,0,0,1,2.41.64c.56.29.58.28.74.16a1.75,1.75,0,0,0,.41-.74c.33-.9.84-2.25,3.46-2.31a5.13,5.13,0,0,1,4.09,1.94,49.68,49.68,0,0,1,6.44-9.89,33.14,33.14,0,0,1,6.05-5.27c1.25-.85,2.08-1.36,2.64-1.66a14,14,0,0,1-1.09-2.53,3.94,3.94,0,0,0-.95-1.71c-1.9-2-.41-5.38-.13-5.79A1,1,0,0,1,528,63c.51-.06.83.23,1.4.76a14.24,14.24,0,0,0,6.3,3.59c3,.79,6.52.62,9.6.48a35.33,35.33,0,0,1,5.25,0c4.76.58,14.67,1.77,22.81,9.07A45.41,45.41,0,0,1,583,89.31a.94.94,0,0,1,.14.26c.58,1.12,1.09,2.25,1.54,3.37A30.75,30.75,0,0,1,587,104.35Zm-2.28,4.88a29.39,29.39,0,0,0-3.1-18.75,16.54,16.54,0,0,0-7.49-1.43c-4.74.09-6.24.92-6.26.92a.89.89,0,0,1-1.21-.31.87.87,0,0,1,.28-1.2c.18-.11,1.87-1.08,7.15-1.19a19.74,19.74,0,0,1,6.2.8,42.77,42.77,0,0,0-8.13-9.84,29.32,29.32,0,0,0-4.77-3.49,14.73,14.73,0,0,1-7,.66c-4.5-.46-6.95-.63-7-.64a.89.89,0,1,1,.12-1.77s2.5.17,7,.64a16.2,16.2,0,0,0,4.52-.11,45,45,0,0,0-14.81-3.92,32.63,32.63,0,0,0-5,0c-3.22.15-6.86.32-10.14-.53a15.73,15.73,0,0,1-6.79-3.76,3,3,0,0,0,.3,2.67,5.71,5.71,0,0,1,1.32,2.35,14.44,14.44,0,0,0,1.56,3.26c.91,1.47,2.11,1.51,4,1.44a7,7,0,0,1,3.9.64c2.18,1.27,1.68,2.81,1.35,3.83a2.83,2.83,0,0,0-.22,1.54,9.5,9.5,0,0,0,2.27-.53,15.33,15.33,0,0,1,6.9-.91A3.8,3.8,0,0,1,552.56,81a2.76,2.76,0,0,1,.13,2.32c-.23.9-.21,1.07.16,1.33a11.33,11.33,0,0,0,4.53,1.64c.76.16,1.62.34,2.58.6a4.62,4.62,0,0,1,3.14,2.31c.88,1.71.64,4.17-.75,7.75a21.75,21.75,0,0,0-1.46,7.54v0a3.85,3.85,0,0,0,.93,2.24c4.92,5.13,7.7,10.79,8,16.36a25.39,25.39,0,0,1-.1,3.35,3.41,3.41,0,0,0,6.06,1.07,71.27,71.27,0,0,0,7.06-12.2,27.39,27.39,0,0,0,1.41-3.87,26.69,26.69,0,0,0-6.11-5.61,17.93,17.93,0,0,1-5.27,1.41,11.4,11.4,0,0,1-3.11-.09l.63-1.66-.07,0a11.69,11.69,0,0,0,2.44,0,13.44,13.44,0,0,0,3.49-.8c-4.69-2.7-6.37-3.1-6.38-3.1a.9.9,0,0,1-.68-1.06.87.87,0,0,1,1-.68c.19,0,2,.46,7.29,3.52A29.58,29.58,0,0,1,584.72,109.23Zm-17.22,34a25,25,0,0,0,5.93-3.76,30,30,0,0,0,5-5.61l-2.68-3.32c-.94,1.21-2.46,3.17-3.53,4.42a41,41,0,0,1-6.24,5.77.81.81,0,0,1-.18.1l-.54.39Zm-.18-5.91a37.58,37.58,0,0,0,3.51-3.52c.71-.84,1.66-2,2.48-3.08a5.39,5.39,0,0,1-4-1.48A61.57,61.57,0,0,1,567.32,137.28Zm-2.59,2.05a58.92,58.92,0,0,0,3.15-12.83,6.38,6.38,0,0,1-.09-1.08,24.67,24.67,0,0,0-.37-4.88,23.73,23.73,0,0,0-5.9-11.37l-.85-1-.22-.3a43.8,43.8,0,0,0-5.06-4.45c-7.44-5.64-11-5.29-12.71-5.12l-.25,0a14,14,0,0,0-2.09.55c-2.21.68-5.23,1.62-7.45.74-2.06-.82-2.25-2.9-2.42-4.9a8.74,8.74,0,0,0-1-4.09c-1.65-2.49-5.9-1.24-8.15-.1A10.78,10.78,0,0,0,519.14,92c-1,.84-2.06,1.7-3.64,1.3a4.63,4.63,0,0,1-2.28-1.62,3.6,3.6,0,0,0-2.92-1.56c-1.41,0-1.56.44-1.84,1.16a3.12,3.12,0,0,1-1,1.54,2.22,2.22,0,0,1-2.62,0,3.09,3.09,0,0,0-1.58-.45c-.83,0-2.18,1.3-3.12,2.46,1.06.9,2.94,3,5,7.71a21.27,21.27,0,0,1,1.71,6.86c.4,3.35.86,7.16,5.32,14.87,5.23,9.06,11.88,12.9,15.85,15.2.51.29,1,.56,1.37.81s1.07.55,1.66.84l1.09.54c3.71,2,8.62,2.83,14.61,2.52a47.16,47.16,0,0,1-17.36-9.43c-10.39-9-16.06-26.54-16.3-27.28a.89.89,0,0,1,1.7-.54c0,.17,5.21,16.09,14.32,25.13.58-1.75,1.74-5.82,1.09-8.65-.27-1.16-.52-2.16-.74-3a27.15,27.15,0,0,1-1-5.65v0a.89.89,0,0,1,1.78,0,24.17,24.17,0,0,0,.9,5l1.66-1.73a.89.89,0,0,1,1.29,1.23l-2.44,2.54c.1.42.21.87.31,1.35.89,3.87-1,9.32-1.39,10.37l0,0a44.32,44.32,0,0,0,10,6.49c-1.29-2.37-3-6.25-1.72-8.71a13.82,13.82,0,0,1,3.71-4.08c1.55-1.32,3-2.56,3.57-4.19a.89.89,0,1,1,1.69.57c-.71,2.09-2.44,3.56-4.11,5-.61.52-1.2,1-1.73,1.53a19.21,19.21,0,0,0,5.13,1,22.61,22.61,0,0,0,6.18-1.25.89.89,0,1,1,.6,1.67,23.89,23.89,0,0,1-6.8,1.36,22.34,22.34,0,0,1-6.34-1.34,4.86,4.86,0,0,0-.31.53c-1.11,2.22,1.73,7.32,2.82,8.93a1.14,1.14,0,0,1,.1.19,40.91,40.91,0,0,0,8.88,2.51h0C560.38,142.36,564,139.91,564.73,139.33Zm-5.61-35.2a23.5,23.5,0,0,1,1.57-7.87c1.16-3,1.44-5.11.83-6.31a2.94,2.94,0,0,0-2-1.39c-.92-.25-1.72-.42-2.49-.58a12.89,12.89,0,0,1-5.17-1.92,2.66,2.66,0,0,1-.88-3.23c.09-.36.2-.77.11-.91s-.29-.35-1.54-.56a13.74,13.74,0,0,0-6.1.86c-1.63.5-2.82.86-3.7.37a1.66,1.66,0,0,1-.79-1,4.3,4.3,0,0,1,.24-2.58c.31-1,.39-1.21-.56-1.76a5.56,5.56,0,0,0-2.94-.39c-1.69.06-3.77.13-5.26-1.84a32.72,32.72,0,0,0-8.29,6.56,49.52,49.52,0,0,0-6.4,9.94l.2.07c.65.16,1-.1,2.07-1a12.9,12.9,0,0,1,2.48-1.7c3.45-1.74,8.25-2.59,10.44.7a10.21,10.21,0,0,1,1.32,4.92c.17,1.91.31,3,1.3,3.4,1.65.66,4.32-.17,6.27-.78a14.4,14.4,0,0,1,2.46-.62l.23,0c1.94-.19,6-.59,14,5.47C557.4,102.68,558.28,103.39,559.12,104.13Z" transform="translate(0 0)"/><path class="cls-1" d="M836,104.35A28.06,28.06,0,0,1,833.42,116a72.83,72.83,0,0,1-7.24,12.5,4.54,4.54,0,0,1-.39.48l3.39,4.21a.89.89,0,0,1,.07,1,30.79,30.79,0,0,1-5.66,6.55,25.63,25.63,0,0,1-7,4.28.89.89,0,0,1-.9-.16l-2.93-2.59a1.24,1.24,0,0,1-.18-.22c-2.57,1.33-7.37,3.1-15.26,3.74-7,.57-12.72-.31-17-2.62l-1-.51c-.7-.34-1.42-.69-1.82-.93s-.84-.49-1.33-.78a41.6,41.6,0,0,1-16.51-15.85c-4.63-8-5.11-12-5.54-15.55a19.36,19.36,0,0,0-1.56-6.34c-2.78-6.2-5-7.44-5.07-7.45a.92.92,0,0,1-.46-.58.93.93,0,0,1,.12-.73c.45-.64,2.81-3.89,5.09-3.92a4.8,4.8,0,0,1,2.41.64c.56.29.58.28.74.16a1.65,1.65,0,0,0,.41-.74c.33-.9.84-2.25,3.46-2.31a5.13,5.13,0,0,1,4.09,1.94,49.68,49.68,0,0,1,6.44-9.89,33.14,33.14,0,0,1,6.05-5.27c1.25-.85,2.08-1.36,2.64-1.66a14,14,0,0,1-1.09-2.53,3.94,3.94,0,0,0-.95-1.71c-1.9-2-.41-5.38-.13-5.79A1,1,0,0,1,777,63c.51-.06.83.23,1.4.76a14.24,14.24,0,0,0,6.3,3.59c3,.79,6.52.62,9.6.48a35.33,35.33,0,0,1,5.25,0c4.76.58,14.67,1.77,22.81,9.07A45.41,45.41,0,0,1,832,89.31a.94.94,0,0,1,.14.26c.58,1.12,1.09,2.25,1.54,3.37A30.75,30.75,0,0,1,836,104.35Zm-2.28,4.88a29.39,29.39,0,0,0-3.1-18.75,16.54,16.54,0,0,0-7.49-1.43c-4.74.09-6.24.92-6.26.92a.89.89,0,0,1-1.21-.31.87.87,0,0,1,.28-1.2c.18-.11,1.87-1.08,7.15-1.19a19.74,19.74,0,0,1,6.2.8,42.77,42.77,0,0,0-8.13-9.84,29.32,29.32,0,0,0-4.77-3.49,14.73,14.73,0,0,1-7,.66c-4.5-.46-6.95-.63-7-.64a.89.89,0,1,1,.12-1.77s2.5.17,7,.64a16.2,16.2,0,0,0,4.52-.11,45,45,0,0,0-14.81-3.92,32.63,32.63,0,0,0-5,0c-3.22.15-6.86.32-10.14-.53a15.73,15.73,0,0,1-6.79-3.76,3,3,0,0,0,.3,2.67,5.71,5.71,0,0,1,1.32,2.35,14.44,14.44,0,0,0,1.56,3.26c.91,1.47,2.11,1.51,4,1.44a7,7,0,0,1,3.9.64c2.18,1.27,1.68,2.81,1.35,3.83a2.83,2.83,0,0,0-.22,1.54,9.5,9.5,0,0,0,2.27-.53,15.33,15.33,0,0,1,6.9-.91A3.8,3.8,0,0,1,801.56,81a2.76,2.76,0,0,1,.13,2.32c-.23.9-.21,1.07.16,1.33a11.33,11.33,0,0,0,4.53,1.64c.76.16,1.62.34,2.58.6a4.62,4.62,0,0,1,3.14,2.31c.88,1.71.64,4.17-.75,7.75a21.75,21.75,0,0,0-1.46,7.54v0a3.85,3.85,0,0,0,.93,2.24c4.92,5.13,7.7,10.79,8,16.36a25.39,25.39,0,0,1-.1,3.35,3.41,3.41,0,0,0,6.06,1.07,71.27,71.27,0,0,0,7.06-12.2,27.39,27.39,0,0,0,1.41-3.87,26.69,26.69,0,0,0-6.11-5.61,17.93,17.93,0,0,1-5.27,1.41,11.4,11.4,0,0,1-3.11-.09l.63-1.66-.07,0a11.69,11.69,0,0,0,2.44,0,13.44,13.44,0,0,0,3.49-.8c-4.69-2.7-6.37-3.1-6.38-3.1a.9.9,0,0,1-.68-1.06.87.87,0,0,1,1-.68c.19,0,2,.46,7.29,3.52A29.58,29.58,0,0,1,833.72,109.23Zm-17.22,34a25,25,0,0,0,5.93-3.76,30,30,0,0,0,5-5.61l-2.68-3.32c-.94,1.21-2.46,3.17-3.53,4.42a41,41,0,0,1-6.24,5.77.81.81,0,0,1-.18.1l-.54.39Zm-.18-5.91a37.58,37.58,0,0,0,3.51-3.52c.71-.84,1.66-2,2.48-3.08a5.39,5.39,0,0,1-4-1.48A61.57,61.57,0,0,1,816.32,137.28Zm-2.59,2.05a58.92,58.92,0,0,0,3.15-12.83,6.38,6.38,0,0,1-.09-1.08,24.67,24.67,0,0,0-.37-4.88,23.73,23.73,0,0,0-5.9-11.37l-.85-1-.22-.3a43.8,43.8,0,0,0-5.06-4.45c-7.44-5.64-11-5.29-12.71-5.12l-.25,0a14,14,0,0,0-2.09.55c-2.21.68-5.23,1.62-7.45.74-2.06-.82-2.25-2.9-2.42-4.9a8.74,8.74,0,0,0-1-4.09c-1.65-2.49-5.9-1.24-8.15-.1A10.78,10.78,0,0,0,768.14,92c-1,.84-2.06,1.7-3.64,1.3a4.63,4.63,0,0,1-2.28-1.62,3.6,3.6,0,0,0-2.92-1.56c-1.41,0-1.56.44-1.84,1.16a3.12,3.12,0,0,1-1,1.54,2.22,2.22,0,0,1-2.62,0,3.09,3.09,0,0,0-1.58-.45c-.83,0-2.18,1.3-3.12,2.46,1.06.9,2.94,3,5,7.71a21.27,21.27,0,0,1,1.71,6.86c.4,3.35.86,7.16,5.32,14.87,5.23,9.06,11.88,12.9,15.85,15.2.51.29,1,.56,1.37.81s1.07.55,1.66.84l1.09.54c3.71,2,8.62,2.83,14.61,2.52a47.16,47.16,0,0,1-17.36-9.43c-10.39-9-16.06-26.54-16.3-27.28a.89.89,0,0,1,1.7-.54c0,.17,5.21,16.09,14.32,25.13.58-1.75,1.74-5.82,1.09-8.65-.27-1.16-.52-2.16-.74-3a27.15,27.15,0,0,1-1-5.65v0a.89.89,0,0,1,1.78,0,24.17,24.17,0,0,0,.9,5l1.66-1.73a.89.89,0,0,1,1.29,1.23l-2.44,2.54c.1.42.21.87.31,1.35.89,3.87-1,9.32-1.39,10.37l0,0a44.32,44.32,0,0,0,10,6.49c-1.29-2.37-3-6.25-1.72-8.71a13.82,13.82,0,0,1,3.71-4.08c1.55-1.32,3-2.56,3.57-4.19a.89.89,0,0,1,1.69.57c-.71,2.09-2.44,3.56-4.11,5-.61.52-1.2,1-1.73,1.53a19.21,19.21,0,0,0,5.13,1,22.61,22.61,0,0,0,6.18-1.25.89.89,0,1,1,.6,1.67,23.89,23.89,0,0,1-6.8,1.36,22.34,22.34,0,0,1-6.34-1.34,4.86,4.86,0,0,0-.31.53c-1.11,2.22,1.73,7.32,2.82,8.93a1.14,1.14,0,0,1,.1.19,40.91,40.91,0,0,0,8.88,2.51h0C809.38,142.36,813,139.91,813.73,139.33Zm-5.61-35.2a23.5,23.5,0,0,1,1.57-7.87c1.16-3,1.44-5.11.83-6.31a2.94,2.94,0,0,0-2-1.39c-.92-.25-1.72-.42-2.49-.58a12.89,12.89,0,0,1-5.17-1.92,2.66,2.66,0,0,1-.88-3.23c.09-.36.2-.77.11-.91s-.29-.35-1.54-.56a13.74,13.74,0,0,0-6.1.86c-1.63.5-2.82.86-3.7.37a1.66,1.66,0,0,1-.79-1,4.3,4.3,0,0,1,.24-2.58c.31-1,.39-1.21-.56-1.76a5.56,5.56,0,0,0-2.94-.39c-1.69.06-3.77.13-5.26-1.84a32.72,32.72,0,0,0-8.29,6.56,49.52,49.52,0,0,0-6.4,9.94l.2.07c.65.16,1-.1,2.07-1a12.9,12.9,0,0,1,2.48-1.7c3.45-1.74,8.25-2.59,10.44.7a10.21,10.21,0,0,1,1.32,4.92c.17,1.91.31,3,1.3,3.4,1.65.66,4.32-.17,6.27-.78a14.4,14.4,0,0,1,2.46-.62l.23,0c1.94-.19,6-.59,14,5.47C806.4,102.68,807.28,103.39,808.12,104.13Z" transform="translate(0 0)"/><path class="cls-1" d="M1085,104.35a28.06,28.06,0,0,1-2.58,11.67,72.83,72.83,0,0,1-7.24,12.5,4.54,4.54,0,0,1-.39.48l3.39,4.21a.89.89,0,0,1,.07,1,30.79,30.79,0,0,1-5.66,6.55,25.63,25.63,0,0,1-6.95,4.28.89.89,0,0,1-.9-.16l-2.93-2.59a1.24,1.24,0,0,1-.18-.22c-2.57,1.33-7.37,3.1-15.26,3.74-7,.57-12.72-.31-17-2.62l-1-.51c-.7-.34-1.42-.69-1.82-.93s-.84-.49-1.33-.78a41.6,41.6,0,0,1-16.51-15.85c-4.63-8-5.11-12-5.54-15.55a19.36,19.36,0,0,0-1.56-6.34c-2.78-6.2-5-7.44-5.07-7.45a.92.92,0,0,1-.46-.58.93.93,0,0,1,.12-.73c.45-.64,2.81-3.89,5.09-3.92a4.8,4.8,0,0,1,2.41.64c.56.29.58.28.74.16a1.65,1.65,0,0,0,.41-.74c.33-.9.84-2.25,3.46-2.31a5.13,5.13,0,0,1,4.09,1.94,49.68,49.68,0,0,1,6.44-9.89,32.81,32.81,0,0,1,6-5.27c1.25-.85,2.08-1.36,2.64-1.66a14,14,0,0,1-1.09-2.53,3.94,3.94,0,0,0-1-1.71c-1.9-2-.41-5.38-.13-5.79a1,1,0,0,1,.68-.4c.51-.06.83.23,1.4.76a14.24,14.24,0,0,0,6.3,3.59c3,.79,6.51.62,9.6.48a35.33,35.33,0,0,1,5.25,0c4.76.58,14.67,1.77,22.81,9.07A45.41,45.41,0,0,1,1081,89.31a.94.94,0,0,1,.14.26c.58,1.12,1.09,2.25,1.54,3.37A30.75,30.75,0,0,1,1085,104.35Zm-2.28,4.88a29.46,29.46,0,0,0-3.1-18.75,16.54,16.54,0,0,0-7.49-1.43c-4.74.09-6.24.92-6.26.92a.89.89,0,0,1-1.21-.31.87.87,0,0,1,.28-1.2c.18-.11,1.87-1.08,7.16-1.19a19.72,19.72,0,0,1,6.19.8,43,43,0,0,0-8.12-9.84,29.82,29.82,0,0,0-4.78-3.49,14.73,14.73,0,0,1-7,.66c-4.49-.46-7-.63-7-.64a.89.89,0,1,1,.12-1.77s2.5.17,7,.64a16.2,16.2,0,0,0,4.52-.11,45,45,0,0,0-14.81-3.92,32.63,32.63,0,0,0-4.95,0c-3.22.15-6.86.32-10.14-.53a15.73,15.73,0,0,1-6.79-3.76,3,3,0,0,0,.3,2.67,5.71,5.71,0,0,1,1.32,2.35,14,14,0,0,0,1.56,3.26c.91,1.47,2.11,1.51,4,1.44a7,7,0,0,1,3.9.64c2.18,1.27,1.68,2.81,1.35,3.83a2.93,2.93,0,0,0-.22,1.54,9.5,9.5,0,0,0,2.27-.53,15.33,15.33,0,0,1,6.9-.91,3.8,3.8,0,0,1,2.74,1.34,2.76,2.76,0,0,1,.13,2.32c-.23.9-.21,1.07.16,1.33a11.33,11.33,0,0,0,4.53,1.64c.76.16,1.62.34,2.58.6a4.62,4.62,0,0,1,3.14,2.31c.88,1.71.64,4.17-.75,7.75a21.75,21.75,0,0,0-1.46,7.54v0a3.85,3.85,0,0,0,.93,2.24c4.92,5.13,7.7,10.79,8,16.36a27.24,27.24,0,0,1-.1,3.35,3.41,3.41,0,0,0,6.06,1.07,70.62,70.62,0,0,0,7.06-12.2,27.39,27.39,0,0,0,1.41-3.87,26.69,26.69,0,0,0-6.11-5.61,17.93,17.93,0,0,1-5.27,1.41,11.4,11.4,0,0,1-3.11-.09l.63-1.66-.07,0a11.69,11.69,0,0,0,2.44,0,13.44,13.44,0,0,0,3.49-.8c-4.7-2.7-6.37-3.1-6.38-3.1a.9.9,0,0,1-.68-1.06.87.87,0,0,1,1-.68c.19,0,2,.46,7.29,3.52A29.78,29.78,0,0,1,1082.72,109.23Zm-17.22,34a25,25,0,0,0,5.93-3.76,29.64,29.64,0,0,0,5-5.61l-2.68-3.32c-.94,1.21-2.46,3.17-3.53,4.42a41,41,0,0,1-6.24,5.77.81.81,0,0,1-.18.1l-.54.39Zm-.18-5.91a37.58,37.58,0,0,0,3.51-3.52c.71-.84,1.66-2,2.48-3.08a5.39,5.39,0,0,1-4-1.48A61.57,61.57,0,0,1,1065.32,137.28Zm-2.58,2.05a59.71,59.71,0,0,0,3.14-12.83,6.38,6.38,0,0,1-.09-1.08,25.47,25.47,0,0,0-.36-4.88,23.81,23.81,0,0,0-5.91-11.37l-.85-1-.22-.3a43.8,43.8,0,0,0-5.06-4.45c-7.44-5.64-11-5.29-12.71-5.12l-.25,0a14,14,0,0,0-2.09.55c-2.21.68-5.23,1.62-7.45.74-2.06-.82-2.25-2.9-2.42-4.9a8.74,8.74,0,0,0-1-4.09c-1.65-2.49-5.9-1.24-8.15-.1a11.18,11.18,0,0,0-2.15,1.48c-1,.84-2,1.7-3.63,1.3a4.68,4.68,0,0,1-2.28-1.62,3.6,3.6,0,0,0-2.92-1.56c-1.41,0-1.56.44-1.84,1.16a3.12,3.12,0,0,1-1,1.54,2.22,2.22,0,0,1-2.62,0,3.09,3.09,0,0,0-1.58-.45c-.83,0-2.18,1.3-3.12,2.46,1.06.9,2.94,3,5,7.71a21.27,21.27,0,0,1,1.71,6.86c.4,3.35.86,7.16,5.32,14.87,5.23,9.06,11.88,12.9,15.85,15.2.51.29,1,.56,1.37.81s1.07.55,1.66.84l1.09.54c3.71,2,8.62,2.83,14.61,2.52a47.16,47.16,0,0,1-17.36-9.43c-10.39-9-16.06-26.54-16.3-27.28a.89.89,0,0,1,1.7-.54c0,.17,5.21,16.09,14.32,25.13.58-1.75,1.74-5.82,1.09-8.65-.27-1.16-.52-2.16-.74-3a27.15,27.15,0,0,1-1-5.65v0a.89.89,0,0,1,1.78,0,23.52,23.52,0,0,0,.9,5l1.66-1.73a.89.89,0,0,1,1.29,1.23l-2.44,2.54c.1.42.21.87.31,1.35.89,3.87-1,9.32-1.39,10.37l0,0a44.32,44.32,0,0,0,10,6.49c-1.29-2.37-2.95-6.25-1.72-8.71a13.82,13.82,0,0,1,3.71-4.08c1.55-1.32,3-2.56,3.57-4.19a.89.89,0,1,1,1.69.57c-.71,2.09-2.44,3.56-4.11,5-.61.52-1.2,1-1.73,1.53a19.21,19.21,0,0,0,5.13,1,22.61,22.61,0,0,0,6.18-1.25.89.89,0,1,1,.6,1.67,23.89,23.89,0,0,1-6.8,1.36,22.34,22.34,0,0,1-6.34-1.34,4.86,4.86,0,0,0-.31.53c-1.11,2.22,1.73,7.32,2.82,8.93a1.14,1.14,0,0,1,.1.19,40.91,40.91,0,0,0,8.88,2.51h0C1058.38,142.36,1062,139.91,1062.74,139.33Zm-5.62-35.2a23.5,23.5,0,0,1,1.57-7.87c1.16-3,1.44-5.11.83-6.31a2.94,2.94,0,0,0-2-1.39c-.92-.25-1.72-.42-2.49-.58a12.89,12.89,0,0,1-5.17-1.92,2.66,2.66,0,0,1-.88-3.23c.1-.36.2-.77.11-.91s-.29-.35-1.53-.56a13.77,13.77,0,0,0-6.11.86c-1.63.5-2.82.86-3.7.37a1.63,1.63,0,0,1-.79-1,4.3,4.3,0,0,1,.24-2.58c.31-1,.39-1.21-.56-1.76a5.56,5.56,0,0,0-2.94-.39c-1.69.06-3.77.13-5.26-1.84a32.72,32.72,0,0,0-8.29,6.56,49.52,49.52,0,0,0-6.4,9.94l.2.07c.65.16,1-.1,2.07-1a12.9,12.9,0,0,1,2.48-1.7c3.45-1.74,8.25-2.59,10.44.7a10.21,10.21,0,0,1,1.32,4.92c.17,1.91.31,3,1.3,3.4,1.65.66,4.32-.17,6.27-.78a14.4,14.4,0,0,1,2.46-.62l.23,0c1.94-.19,6-.59,14,5.47C1055.4,102.68,1056.28,103.39,1057.12,104.13Z" transform="translate(0 0)"/><path class="cls-1" d="M1118,178.65a28.06,28.06,0,0,1,2.58-11.67,72.83,72.83,0,0,1,7.24-12.5,4.54,4.54,0,0,1,.39-.48l-3.39-4.21a.89.89,0,0,1-.07-1,30.79,30.79,0,0,1,5.66-6.55,25.63,25.63,0,0,1,6.95-4.28.89.89,0,0,1,.9.16l2.93,2.59a1.24,1.24,0,0,1,.18.22c2.57-1.33,7.37-3.1,15.26-3.74,7-.57,12.72.31,17,2.62l1,.51c.7.34,1.42.69,1.82.93s.84.49,1.33.78a41.6,41.6,0,0,1,16.51,15.85c4.63,8,5.11,12,5.54,15.55a19.36,19.36,0,0,0,1.56,6.34c2.78,6.2,5,7.44,5.07,7.45a.92.92,0,0,1,.46.58.93.93,0,0,1-.12.73c-.45.64-2.81,3.89-5.09,3.92a4.8,4.8,0,0,1-2.41-.64c-.56-.29-.58-.28-.74-.16a1.65,1.65,0,0,0-.41.74c-.33.9-.84,2.25-3.46,2.31a5.13,5.13,0,0,1-4.09-1.94,49.68,49.68,0,0,1-6.44,9.89,32.81,32.81,0,0,1-6,5.27c-1.25.85-2.08,1.36-2.64,1.66a14,14,0,0,1,1.09,2.53,4,4,0,0,0,1,1.71c1.9,2,.41,5.38.13,5.79a1,1,0,0,1-.68.4c-.51.06-.83-.23-1.4-.76a14.24,14.24,0,0,0-6.3-3.59c-3-.79-6.51-.62-9.6-.48a34,34,0,0,1-5.25,0c-4.76-.58-14.67-1.77-22.81-9.07a45.41,45.41,0,0,1-9.68-12.41.94.94,0,0,1-.14-.26c-.58-1.12-1.09-2.25-1.54-3.37A30.75,30.75,0,0,1,1118,178.65Zm2.28-4.88a29.46,29.46,0,0,0,3.1,18.75,16.64,16.64,0,0,0,7.49,1.44c4.74-.1,6.24-.93,6.26-.93a.89.89,0,0,1,1.21.31.87.87,0,0,1-.28,1.2c-.18.11-1.87,1.08-7.16,1.19a19.72,19.72,0,0,1-6.19-.8,43,43,0,0,0,8.12,9.84,29.82,29.82,0,0,0,4.78,3.49,14.73,14.73,0,0,1,7-.66c4.49.46,7,.64,7,.64a.89.89,0,1,1-.12,1.77s-2.5-.17-7-.64a16.2,16.2,0,0,0-4.52.11,45,45,0,0,0,14.81,3.92,32.63,32.63,0,0,0,4.95,0c3.22-.15,6.86-.32,10.14.53a15.73,15.73,0,0,1,6.79,3.76,3,3,0,0,0-.3-2.67,5.71,5.71,0,0,1-1.32-2.35,14,14,0,0,0-1.56-3.26c-.91-1.47-2.11-1.51-4-1.44a7,7,0,0,1-3.9-.64c-2.18-1.27-1.68-2.81-1.35-3.83a2.94,2.94,0,0,0,.22-1.54,9.5,9.5,0,0,0-2.27.53,15.33,15.33,0,0,1-6.9.91,3.8,3.8,0,0,1-2.74-1.34,2.76,2.76,0,0,1-.13-2.32c.23-.9.21-1.07-.16-1.33a11.33,11.33,0,0,0-4.53-1.64c-.76-.16-1.62-.34-2.58-.6a4.62,4.62,0,0,1-3.14-2.31c-.88-1.71-.64-4.17.75-7.75a21.75,21.75,0,0,0,1.46-7.54v0a3.85,3.85,0,0,0-.93-2.24c-4.92-5.13-7.7-10.79-8-16.35a27.34,27.34,0,0,1,.1-3.36,3.41,3.41,0,0,0-6.06-1.07,70.62,70.62,0,0,0-7.06,12.2,27.39,27.39,0,0,0-1.41,3.87,26.69,26.69,0,0,0,6.11,5.61,17.93,17.93,0,0,1,5.27-1.41,11.4,11.4,0,0,1,3.11.09l-.63,1.66.07,0a11.69,11.69,0,0,0-2.44,0,13.44,13.44,0,0,0-3.49.8c4.7,2.7,6.37,3.1,6.38,3.11a.88.88,0,0,1,.68,1.05.87.87,0,0,1-1,.68c-.19,0-2-.47-7.29-3.52A29.78,29.78,0,0,1,1120.28,173.77Zm17.22-34a25,25,0,0,0-5.93,3.76,29.64,29.64,0,0,0-5,5.61l2.68,3.32c.94-1.21,2.46-3.17,3.53-4.42a41,41,0,0,1,6.24-5.77.81.81,0,0,1,.18-.1l.54-.39Zm.18,5.91a37.58,37.58,0,0,0-3.51,3.52c-.71.84-1.66,2-2.48,3.08a5.39,5.39,0,0,1,4,1.48A61.57,61.57,0,0,1,1137.68,145.72Zm2.58-2.05a59.71,59.71,0,0,0-3.14,12.83,6.38,6.38,0,0,1,.09,1.08,25.47,25.47,0,0,0,.36,4.88,23.9,23.9,0,0,0,5.91,11.38c.32.38.61.72.85,1l.22.29a43.8,43.8,0,0,0,5.06,4.45c7.44,5.64,11,5.29,12.71,5.12l.25,0a14,14,0,0,0,2.09-.55c2.21-.68,5.23-1.62,7.45-.74,2.06.82,2.25,2.9,2.42,4.9a8.74,8.74,0,0,0,1,4.09c1.65,2.49,5.9,1.24,8.15.1a11.18,11.18,0,0,0,2.15-1.48c1-.84,2.05-1.7,3.63-1.3a4.74,4.74,0,0,1,2.28,1.62,3.6,3.6,0,0,0,2.92,1.56c1.41,0,1.56-.44,1.84-1.16a3.12,3.12,0,0,1,1-1.54,2.22,2.22,0,0,1,2.62,0,3.09,3.09,0,0,0,1.58.45c.83,0,2.18-1.3,3.12-2.46-1.06-.9-2.94-3-5-7.71a21.27,21.27,0,0,1-1.71-6.86c-.4-3.35-.86-7.16-5.32-14.87-5.23-9.06-11.88-12.9-15.85-15.2-.51-.29-1-.56-1.37-.81s-1.07-.55-1.66-.84l-1.09-.54c-3.71-2-8.62-2.83-14.61-2.52a47.16,47.16,0,0,1,17.36,9.43c10.39,9,16.06,26.54,16.3,27.28a.89.89,0,0,1-1.7.54c-.05-.17-5.21-16.09-14.32-25.13-.58,1.75-1.74,5.82-1.09,8.65.27,1.16.52,2.16.74,3a27.18,27.18,0,0,1,1,5.64v0a.89.89,0,0,1-1.78,0,23.52,23.52,0,0,0-.9-5l-1.66,1.73a.89.89,0,1,1-1.29-1.23l2.44-2.54c-.1-.42-.21-.87-.31-1.35-.89-3.87,1-9.32,1.39-10.37l0,0a44.32,44.32,0,0,0-10-6.49c1.29,2.37,2.95,6.25,1.72,8.71a13.82,13.82,0,0,1-3.71,4.08c-1.55,1.32-3,2.56-3.57,4.19a.89.89,0,0,1-1.69-.57c.71-2.09,2.44-3.56,4.11-5,.61-.52,1.2-1,1.73-1.53a19.21,19.21,0,0,0-5.13-1,22.61,22.61,0,0,0-6.18,1.25.89.89,0,1,1-.6-1.67,23.89,23.89,0,0,1,6.8-1.36,22.34,22.34,0,0,1,6.34,1.34,4.86,4.86,0,0,0,.31-.53c1.11-2.22-1.73-7.32-2.82-8.93a1.14,1.14,0,0,1-.1-.19,40.91,40.91,0,0,0-8.88-2.51h0C1144.62,140.64,1141,143.09,1140.26,143.67Zm5.62,35.2a23.5,23.5,0,0,1-1.57,7.87c-1.16,3-1.44,5.11-.83,6.31a2.94,2.94,0,0,0,2,1.39c.92.25,1.72.42,2.49.58a12.89,12.89,0,0,1,5.17,1.92,2.66,2.66,0,0,1,.88,3.23c-.1.36-.2.77-.11.91s.29.35,1.53.56a13.77,13.77,0,0,0,6.11-.86c1.63-.5,2.82-.86,3.7-.37a1.63,1.63,0,0,1,.79,1,4.34,4.34,0,0,1-.24,2.59c-.31,1-.39,1.2.56,1.75a5.56,5.56,0,0,0,2.94.39c1.69-.06,3.77-.13,5.26,1.84a32.72,32.72,0,0,0,8.29-6.56,49.52,49.52,0,0,0,6.4-9.94l-.2-.07c-.65-.16-1,.1-2.07,1a12.47,12.47,0,0,1-2.48,1.7c-3.45,1.74-8.25,2.59-10.44-.7a10.21,10.21,0,0,1-1.32-4.92c-.17-1.91-.31-3-1.3-3.4-1.65-.65-4.32.17-6.27.78a14.4,14.4,0,0,1-2.46.62l-.23,0c-1.94.19-6,.59-14-5.47C1147.6,180.32,1146.72,179.6,1145.88,178.87Z" transform="translate(0 0)"/></svg>