<svg  viewBox="0 0 307 78" fill="none" xmlns="http://www.w3.org/2000/svg">
<path fill-rule="evenodd" clip-rule="evenodd" d="M14.5528 44.4919L20.5232 37.9343L33.3761 60.4293H50.6239L30.2251 26.7283L50.6239 0H32.6298L19.6111 18.9672L14.5528 26.6453V0H0V60.4293H14.5528V44.4919ZM77.6151 56.4035C78.002 58.1743 78.4443 59.5162 78.9418 60.4293H92.9142V59.7237C91.698 57.5379 91.0623 54.3836 91.007 50.2609V30.3807C90.9241 25.5109 89.2242 21.6787 85.9073 18.8842C82.5904 16.0896 78.0711 14.6923 72.3495 14.6923C66.6279 14.6923 61.9152 16.0481 58.2113 18.7596C54.5351 21.4712 52.697 24.999 52.697 29.3431H66.6694C66.6694 26.0781 68.3278 24.4456 71.6447 24.4456C75.2103 24.4456 76.9932 26.507 76.9932 30.6297V32.9954H72.6812C65.8263 32.9954 60.6022 34.2405 57.0089 36.7307C53.4156 39.2209 51.619 42.9009 51.619 47.7707C51.619 51.6444 53.0978 54.8678 56.0553 57.441C59.0129 59.9866 62.6062 61.2594 66.8352 61.2594C71.4512 61.2594 75.0445 59.6407 77.6151 56.4035ZM74.5055 50.1779C73.3722 50.925 71.9349 51.2985 70.1935 51.2985C68.8668 51.2985 67.775 50.9111 66.9181 50.1364C66.0613 49.334 65.6328 48.2964 65.6328 47.0236C65.6328 42.6519 68.0652 40.4661 72.93 40.4661H76.9932V47.6462C76.4956 48.5869 75.6664 49.4308 74.5055 50.1779ZM140.429 38.3079C140.429 45.2805 138.853 50.8558 135.702 55.0338C132.579 59.1842 128.35 61.2594 123.015 61.2594C118.896 61.2594 115.51 59.7514 112.857 56.7355V77.6948H98.8846V15.5224H111.945L112.359 19.6727C115.041 16.3524 118.565 14.6923 122.932 14.6923C128.46 14.6923 132.758 16.7398 135.826 20.8348C138.894 24.9022 140.429 30.5052 140.429 37.6438V38.3079ZM126.456 37.4363C126.456 29.4676 124.134 25.4832 119.491 25.4832C116.174 25.4832 113.963 26.673 112.857 29.0526V46.7331C114.073 49.2233 116.312 50.4684 119.574 50.4684C124.024 50.4684 126.318 46.6224 126.456 38.9304V37.4363ZM161.366 61.2594C166.397 61.2594 170.391 59.364 173.349 55.5734L173.763 60.4293H186.865V15.5224H172.81V47.0236C171.455 49.3202 169.175 50.4684 165.969 50.4684C162.237 50.4684 160.371 48.5454 160.371 44.6994V15.5224H146.399V44.6164C146.399 49.9842 147.657 54.1069 150.172 56.9845C152.715 59.8344 156.446 61.2594 161.366 61.2594ZM218.044 47.8122C218.044 46.6224 217.422 45.6678 216.178 44.9484C214.934 44.229 212.571 43.482 209.088 42.7072C205.605 41.9325 202.731 40.9226 200.464 39.6775C198.198 38.4047 196.47 36.8691 195.282 35.0706C194.093 33.2721 193.499 31.2107 193.499 28.8865C193.499 24.7638 195.199 21.3744 198.598 18.7181C201.453 16.4644 205.049 15.157 209.385 14.7957V4.59627H216.045V14.9287C220.1 15.4215 223.489 16.6846 226.211 18.7181C229.805 21.402 231.601 24.9299 231.601 29.3016H217.588C217.588 25.7046 215.694 23.9061 211.907 23.9061C210.442 23.9061 209.212 24.3211 208.217 25.1512C207.222 25.9536 206.725 26.9635 206.725 28.181C206.725 29.4261 207.333 30.436 208.549 31.2107C209.765 31.9855 211.7 32.6219 214.354 33.1199C217.035 33.618 219.384 34.2128 221.402 34.9046C228.146 37.2288 231.518 41.393 231.518 47.3972C231.518 51.4922 229.694 54.8263 226.046 57.3995C223.322 59.3352 219.988 60.5428 216.045 61.0224V71.2626H209.385V61.1514C206.565 60.9079 203.992 60.2521 201.667 59.1842C198.654 57.8007 196.304 55.9192 194.618 53.5397C192.932 51.1602 192.089 48.6561 192.089 46.0275H205.149C205.205 48.1027 205.896 49.6245 207.222 50.5929C208.549 51.5337 210.249 52.0041 212.322 52.0041C214.229 52.0041 215.653 51.6167 216.592 50.842C217.56 50.0672 218.044 49.0573 218.044 47.8122ZM254.363 15.5224V4.35788H240.391V15.5224H234.669V25.2342H240.391V47.5217C240.391 52.1424 241.538 55.5872 243.832 57.8561C246.127 60.1249 249.678 61.2594 254.488 61.2594C257.224 61.2594 259.85 60.8582 262.365 60.0558V50.0534C261.426 50.2194 260.265 50.3024 258.883 50.3024C257.086 50.3024 255.884 49.9704 255.276 49.3063C254.668 48.6423 254.363 47.4663 254.363 45.7785V25.2342H261.744V15.5224H254.363ZM292.549 60.4293C292.052 59.5162 291.609 58.1743 291.222 56.4035C288.652 59.6407 285.058 61.2594 280.442 61.2594C276.213 61.2594 272.62 59.9866 269.663 57.441C266.705 54.8678 265.226 51.6444 265.226 47.7707C265.226 42.9009 267.023 39.2209 270.616 36.7307C274.21 34.2405 279.434 32.9954 286.288 32.9954H290.6V30.6297C290.6 26.507 288.818 24.4456 285.252 24.4456C281.935 24.4456 280.277 26.0781 280.277 29.3431H266.304C266.304 24.999 268.142 21.4712 271.819 18.7596C275.522 16.0481 280.235 14.6923 285.957 14.6923C291.678 14.6923 296.198 16.0896 299.515 18.8842C302.831 21.6787 304.531 25.5109 304.614 30.3807V50.2609C304.67 54.3836 305.305 57.5379 306.521 59.7237V60.4293H292.549ZM283.801 51.2985C285.542 51.2985 286.98 50.925 288.113 50.1779C289.274 49.4308 290.103 48.5869 290.6 47.6462V40.4661H286.537C281.672 40.4661 279.24 42.6519 279.24 47.0236C279.24 48.2964 279.669 49.334 280.525 50.1364C281.382 50.9111 282.474 51.2985 283.801 51.2985Z" fill="black"/>
</svg>
