<svg width="49" height="56" viewBox="0 0 49 56" xmlns="http://www.w3.org/2000/svg">
<path d="M11.7985 4.72461C11.3997 4.72461 11.0764 5.09659 11.0764 5.55553V5.90706C11.0764 6.36589 11.3996 6.73798 11.7985 6.73798C12.1972 6.73798 12.5206 6.366 12.5206 5.90706V5.55553C12.5205 5.09659 12.1972 4.72461 11.7985 4.72461Z" />
<path d="M9.69884 7.4917H9.39344C8.99469 7.4917 8.67133 7.86368 8.67133 8.32262C8.67133 8.78145 8.9946 9.15354 9.39344 9.15354H9.69884C10.0976 9.15354 10.421 8.78156 10.421 8.32262C10.421 7.86379 10.0977 7.4917 9.69884 7.4917Z" />
<path d="M10.8243 6.02695L10.6082 5.77845C10.3263 5.45404 9.86903 5.45404 9.5871 5.77856C9.30518 6.10307 9.30518 6.62917 9.5872 6.95357L9.80325 7.20207C9.94421 7.36428 10.129 7.44543 10.3138 7.44543C10.4986 7.44543 10.6834 7.36428 10.8244 7.20196C11.1063 6.87745 11.1063 6.35135 10.8243 6.02695Z" />
<path d="M10.8244 9.44358C10.5424 9.11907 10.0852 9.11907 9.80318 9.44358L9.58713 9.69219C9.30511 10.0166 9.30511 10.5428 9.58713 10.8672C9.72809 11.0294 9.91287 11.1106 10.0977 11.1106C10.2825 11.1106 10.4673 11.0294 10.6084 10.8672L10.8244 10.6186C11.1064 10.2942 11.1064 9.76799 10.8244 9.44358Z" />
<path d="M43.3113 6.85344H18.9168C18.6416 5.07598 17.8702 3.44805 16.7039 2.20795C15.3649 0.784109 13.6227 0 11.7985 0C7.81019 0 4.56549 3.73363 4.56549 8.32289C4.56549 12.9122 7.81019 16.6458 11.7985 16.6458C12.5308 16.6458 13.2503 16.5178 13.9447 16.269C15.0327 17.4502 16.3808 18.3339 17.9034 18.7895C18.887 19.0839 19.6343 20.0179 19.807 21.1692L20.7248 27.2869C21.0491 29.4483 22.0943 31.322 23.668 32.5629C24.8612 33.5037 25.5735 35.0378 25.5735 36.6667V49.1358C25.023 49.5373 24.6703 50.243 24.6703 51.0216C24.6703 51.0453 24.6706 51.0689 24.6713 51.0926C22.8671 51.5169 21.3811 51.9077 20.253 52.2545C19.4845 52.4907 18.9048 52.6991 18.4805 52.8915C18.0853 53.0707 17.3496 53.4044 17.3496 54.1789C17.3496 55.2196 18.5255 55.3972 19.4703 55.5401C20.2821 55.6628 21.4066 55.765 22.8128 55.844C25.1884 55.9776 27.5949 55.9998 27.6189 56C27.6208 56 27.6226 56 27.6244 56C27.6262 56 27.6281 56 27.6298 56C27.6538 55.9998 30.0604 55.9775 32.4359 55.844C33.8421 55.765 34.9667 55.6628 35.7784 55.5401C36.7232 55.3972 37.8991 55.2196 37.8991 54.1789C37.8991 53.3558 37.2394 52.9312 34.8301 52.2039C33.3701 51.7632 31.5512 51.3183 30.2449 51.0147C30.2433 50.4148 30.036 49.8541 29.6752 49.4417V36.6665C29.6752 35.0377 30.3876 33.5036 31.5808 32.5628C33.1544 31.3219 34.1996 29.4482 34.5239 27.2868L35.4417 21.1691C35.6144 20.0178 36.3616 19.0837 37.3453 18.7894C40.6437 17.8024 43.1245 14.8092 43.9091 11.1234C43.9121 11.1092 43.9153 11.0952 43.9178 11.0808C44.0835 10.2879 44.1725 9.464 44.1725 8.62061V7.84459C44.1725 7.29805 43.7862 6.85344 43.3113 6.85344ZM11.7985 14.9839C8.60653 14.9839 6.00971 11.9958 6.00971 8.32289C6.00971 4.64997 8.60653 1.66184 11.7985 1.66184C13.2584 1.66184 14.6524 2.28922 15.7238 3.42847C16.5932 4.3528 17.188 5.54575 17.4438 6.85344H16.7042C16.1326 4.31988 14.1264 2.48828 11.7985 2.48828C9.00252 2.48828 6.72793 5.10573 6.72793 8.32289C6.72793 11.54 9.00262 14.1575 11.7985 14.1575C12.0066 14.1575 12.2153 14.1413 12.4231 14.1115C12.5617 14.3717 12.71 14.6244 12.8675 14.8695C12.5166 14.9454 12.1594 14.9839 11.7985 14.9839ZM14.0097 5.7785C13.7278 5.45409 13.2705 5.45409 12.9885 5.7785L12.7726 6.027C12.5781 6.25067 12.5178 6.57027 12.5915 6.85344H11.9377C11.4628 6.85344 11.0764 7.29805 11.0764 7.84459V8.62061C11.0764 9.46378 11.1652 10.2875 11.3309 11.0801C11.3335 11.0955 11.3369 11.1105 11.3401 11.1256C11.4398 11.5935 11.566 12.0506 11.7186 12.4935C9.7559 12.4443 8.17205 10.593 8.17205 8.32289C8.17205 6.02197 9.79887 4.15002 11.7985 4.15002C13.3326 4.15002 14.6718 5.2617 15.1924 6.85344H14.0829C14.2882 6.52848 14.2643 6.07152 14.0097 5.7785ZM29.8526 52.6189C32.3911 53.2067 33.9849 53.6522 34.9823 53.974C33.1581 54.1802 30.2317 54.3152 27.6245 54.3382C25.0177 54.3152 22.0917 54.1802 20.2673 53.9742C21.2214 53.6663 22.7204 53.2454 25.0697 52.6949C25.7196 52.5428 26.1695 51.8425 26.1162 51.0666C26.1151 51.0518 26.1146 51.0367 26.1146 51.0215C26.1146 50.7641 26.2658 50.5378 26.4824 50.471C26.7982 50.3737 27.0177 50.0445 27.0177 49.6684V36.6665C27.0177 35.5725 26.7784 34.5115 26.3392 33.568C26.7428 33.5981 27.1834 33.6135 27.6245 33.6135C28.0655 33.6135 28.5062 33.5981 28.9097 33.568C28.4705 34.5116 28.2312 35.5726 28.2312 36.6665V49.8361C28.2312 50.1212 28.3583 50.3864 28.5678 50.5386C28.7137 50.6446 28.8008 50.825 28.8008 51.0214C28.8008 51.034 28.8004 51.0466 28.7999 51.0581C28.7582 51.7994 29.2108 52.4704 29.8526 52.6189ZM42.7285 8.62061H42.7284C42.7284 9.12012 42.6919 9.61166 42.6218 10.0917H20.8833C20.4845 10.0917 20.1612 10.4637 20.1612 10.9226C20.1612 11.3815 20.4844 11.7535 20.8833 11.7535H42.2299C41.3664 14.3772 39.4453 16.4442 36.9821 17.1812C35.4509 17.6393 34.2878 19.0937 34.0189 20.8865L33.1011 27.0041C32.8437 28.7198 32.014 30.2071 30.7647 31.1921C30.571 31.3449 29.9957 31.7017 29.8908 31.7555C29.3193 32.0147 25.9344 32.0148 25.3592 31.756C25.2545 31.7028 24.6786 31.3453 24.4843 31.1922C23.235 30.2071 22.4053 28.7198 22.1479 27.0042L21.2301 20.8866C20.9612 19.0938 19.798 17.6395 18.2669 17.1813C16.8731 16.7642 15.6532 15.921 14.6997 14.7925C14.677 14.7604 14.6522 14.7308 14.6261 14.7033C13.9296 13.856 13.3813 12.8541 13.0191 11.7537H17.5237C17.9224 11.7537 18.2458 11.3817 18.2458 10.9227C18.2458 10.4639 17.9225 10.0918 17.5237 10.0918H12.6272C12.5571 9.61176 12.5206 9.12012 12.5206 8.62072V8.51528H42.7285V8.62061Z" />
</svg>
