<svg width="59" height="57" viewBox="0 0 59 57" fill="none" xmlns="http://www.w3.org/2000/svg">
<rect x="0.92865" y="9.72266" width="52.6786" height="46" rx="20" fill="#FFDAC0"/>
<path d="M24.4633 21.1923C23.9894 20.6114 23.3148 20.2712 22.6124 20.259C21.1997 20.2387 20.031 21.5002 20.007 23.0812C19.9993 23.5909 20.362 24.011 20.8169 24.0196C20.8218 24.0197 20.8264 24.0197 20.8312 24.0197C21.2798 24.0197 21.6472 23.6167 21.6547 23.1124C21.6632 22.5477 22.0776 22.0946 22.5866 22.1045C22.8407 22.1089 23.075 22.227 23.2465 22.4372C23.5535 22.8136 24.0748 22.8399 24.4106 22.4961C24.7466 22.1525 24.7702 21.5686 24.4633 21.1923Z" fill="#FF751D"/>
<path d="M28.8471 24.2001C28.5945 23.5352 28.1029 23.0104 27.4979 22.7602C26.2812 22.2576 24.925 22.9561 24.4742 24.3171C24.3159 24.7951 24.5336 25.3261 24.9601 25.5034C25.0546 25.5427 25.1514 25.5613 25.2466 25.5613C25.5813 25.5613 25.896 25.3312 26.0192 24.9591C26.1546 24.5503 26.5625 24.3411 26.9272 24.4919C27.1106 24.5677 27.2539 24.7206 27.3304 24.9224C27.5085 25.3913 27.9926 25.6101 28.4112 25.4105C28.8301 25.2111 29.0251 24.6692 28.8471 24.2001Z" fill="#FF751D"/>
<path d="M34.1576 16.027C33.8355 15.6668 33.3138 15.6676 32.9924 16.0283L32.2157 16.9C31.8943 17.2608 31.8948 17.8451 32.2169 18.205C32.3776 18.3848 32.5883 18.4746 32.7989 18.4746C33.01 18.4746 33.2212 18.3843 33.3821 18.2037L34.1589 17.332C34.4803 16.9713 34.4798 16.3869 34.1576 16.027Z" fill="#FF751D"/>
<path d="M29.0314 27.9404H27.9332C27.478 27.9404 27.1092 28.3536 27.1092 28.8633C27.1092 29.3729 27.478 29.7861 27.9332 29.7861H29.0314C29.4865 29.7861 29.8553 29.3729 29.8553 28.8633C29.8553 28.3536 29.4865 27.9404 29.0314 27.9404Z" fill="#FF751D"/>
<path d="M37.4518 27.9404H36.3535C35.8983 27.9404 35.5295 28.3536 35.5295 28.8633C35.5295 29.3729 35.8984 29.7861 36.3535 29.7861H37.4518C37.9068 29.7861 38.2757 29.3729 38.2757 28.8633C38.2757 28.3536 37.9068 27.9404 37.4518 27.9404Z" fill="#FF751D"/>
<path d="M58.9378 44.5803L58.7233 43.2832C58.5865 42.4543 57.9403 41.8528 57.1867 41.8528C57.0921 41.8528 56.9968 41.8625 56.9029 41.8818L52.5348 42.7805L54.513 41.2994C55.0314 40.9113 55.2934 40.2171 55.1804 39.5284C55.149 39.3398 55.0901 39.1588 55.0048 38.9893L54.4062 37.8021C54.2011 37.3942 53.8513 37.0911 53.4475 36.971C53.2498 36.9119 53.043 36.8988 52.8413 36.9282C53.0616 35.5666 53.1752 34.1759 53.1752 32.7602C53.1752 32.1321 52.8379 31.5915 52.3562 31.3515C52.9857 29.6746 53.0286 27.7548 52.4064 25.9967C52.3559 25.8538 52.281 25.7262 52.184 25.6174C52.0878 25.5096 51.9751 25.4263 51.8474 25.3688C51.1017 25.0362 50.3181 24.8677 49.5182 24.8677C49.4159 24.8677 49.3141 24.8706 49.2125 24.876C49.0984 22.3003 47.195 20.2441 44.8714 20.2441C44.5654 20.2441 44.2671 20.2805 43.9789 20.3484C44.1791 19.0072 44.0612 17.6041 43.5948 16.2868C43.5447 16.142 43.4695 16.012 43.3672 15.8956C43.2687 15.7854 43.1533 15.7003 43.0252 15.6434C42.222 15.2851 41.3778 15.1035 40.516 15.1035C39.2179 15.1035 37.9761 15.5122 36.9041 16.2721C36.5124 15.0014 35.8665 13.8085 34.9641 12.7955C34.6998 12.4989 34.3482 12.3355 33.9741 12.3355C33.6 12.3355 33.2485 12.4989 32.9838 12.7957L28.9944 17.2741C28.2561 16.5366 27.2846 16.0957 26.2301 16.0957C25.9908 16.0957 25.7492 16.1192 25.512 16.1655C24.6526 16.3331 23.8617 16.8042 23.2554 17.4942C22.4779 17.074 21.5872 16.9307 20.7313 17.0975C20.5429 17.1342 20.3602 17.1859 20.1829 17.2489V13.7979C20.1829 11.4214 18.4775 9.48454 16.3679 9.44369V7.48651C17.0137 7.36137 17.5068 6.73101 17.5068 5.97255V1.53808C17.5068 0.690044 16.8908 0 16.1335 0H9.43285C8.67556 0 8.05956 0.690044 8.05956 1.53808V5.97255C8.05956 6.73101 8.55263 7.36137 9.1984 7.48651V9.44344C7.08881 9.48417 5.38352 11.421 5.38352 13.7977V40.732C3.73844 42.396 2.71429 44.7178 2.71429 47.2853C2.71429 52.3358 6.6721 56.4448 11.5371 56.4448L44.5164 56.434C45.6421 56.4335 46.7007 55.8794 47.4208 54.914C48.1221 53.9742 48.4202 52.7534 48.2485 51.5495L54.8355 52.8754C54.9267 52.8937 55.0201 52.9031 55.1127 52.9031C55.4412 52.9031 55.756 52.7901 56.0225 52.5767C56.3652 52.3026 56.5971 51.8782 56.6589 51.4127L56.8373 50.0719C56.8631 49.8798 56.8602 49.6864 56.8289 49.4968C56.7155 48.8112 56.2494 48.2672 55.6413 48.1111L53.3195 47.5146L57.6834 46.6167C58.0949 46.5321 58.452 46.2733 58.6889 45.8881C58.9253 45.5038 59.0136 45.0394 58.9378 44.5803ZM49.5182 26.7131C50.0142 26.7131 50.5019 26.8011 50.9708 26.9745C51.3898 28.4035 51.2329 29.9449 50.5768 31.2182H48.3571L49.0654 30.4231C49.3869 30.0623 49.3862 29.478 49.064 29.1179C48.7418 28.7579 48.22 28.7585 47.8988 29.1194L47.5241 29.5401C47.3484 28.8923 47.0416 28.3122 46.6385 27.8364C47.4563 27.1091 48.4602 26.7131 49.5182 26.7131ZM44.8714 22.0895C46.3595 22.0895 47.5701 23.4494 47.5701 25.121C47.5701 25.152 47.5688 25.1827 47.568 25.2134C46.6994 25.5298 45.8989 26.0583 45.2161 26.776C45.1074 26.7299 44.9972 26.687 44.884 26.652C44.643 25.1936 43.7655 24.0247 42.6064 23.4787C43.0875 22.644 43.9222 22.0895 44.8714 22.0895ZM40.5159 16.9489C41.0755 16.9489 41.6255 17.0503 42.1555 17.2509C42.5814 18.6693 42.4944 20.193 41.9517 21.5128C41.5055 21.968 41.1435 22.5254 40.8961 23.1519C40.749 23.1615 40.6019 23.1797 40.4566 23.208C39.8109 23.3339 39.2089 23.6477 38.705 24.1027C38.5332 23.7508 38.3228 23.4261 38.0818 23.1337L39.9713 21.0126C40.2928 20.6519 40.2921 20.0675 39.9699 19.7076C39.6478 19.3476 39.126 19.3482 38.8046 19.7091L36.7394 22.0274C36.3464 21.8193 35.9217 21.6746 35.4753 21.6069C35.6681 20.5057 36.1452 19.468 36.8833 18.6394C37.8544 17.5492 39.1445 16.9489 40.5159 16.9489ZM34.2021 31.2182H33.4879C33.3676 30.8754 33.0702 30.6324 32.7214 30.6324C32.3725 30.6324 32.0751 30.8755 31.9548 31.2182H31.1146C31.3097 30.8624 31.2703 30.3909 30.9949 30.083C30.6727 29.723 30.151 29.7236 29.8295 30.0844L29.0529 30.956C28.9832 31.0343 28.9295 31.1235 28.8901 31.2182H27.2131C26.585 30.1387 26.2017 28.8646 26.1563 27.4939H39.2284C39.183 28.8646 38.7997 30.1387 38.1716 31.2182H36.4265C36.3871 31.1235 36.3333 31.0341 36.2637 30.9559L35.4872 30.0842C35.1656 29.7236 34.6441 29.7226 34.3219 30.0828C34.0463 30.3906 34.0069 30.8622 34.2021 31.2182ZM32.2857 25.6482C32.5963 24.359 33.6463 23.4077 34.8906 23.4077C36.135 23.4077 37.185 24.3591 37.4956 25.6482H32.2857ZM33.9707 14.3007C34.7545 15.2494 35.2727 16.3758 35.5268 17.5597C35.1061 18.0717 34.7567 18.6375 34.481 19.2395C34.3559 19.1536 34.2092 19.1033 34.0518 19.1033H32.9538C32.4988 19.1033 32.1299 19.5165 32.1299 20.0262C32.1299 20.5358 32.4988 20.949 32.9538 20.949H33.917C33.8628 21.2038 33.8208 21.4618 33.7902 21.7216C33.463 21.8179 33.1506 21.9549 32.8581 22.1294C32.3089 21.0679 31.3995 20.2768 30.322 19.9595C30.3216 19.9569 30.3212 19.9543 30.3207 19.9517C30.2561 19.5341 30.1434 19.1379 29.9897 18.7696L33.9707 14.3007ZM19.0757 22.628C19.0274 22.4766 18.9908 22.3214 18.9667 22.1656C18.7304 20.6397 19.6489 19.1818 21.0137 18.9157C21.1576 18.8876 21.3039 18.8733 21.4482 18.8733C21.991 18.8733 22.5098 19.0673 22.9483 19.4341C23.1297 19.5859 23.3591 19.6473 23.5823 19.604C23.8055 19.5606 24.003 19.4162 24.1282 19.2047C24.515 18.5512 25.1069 18.1176 25.7946 17.9835C25.9389 17.9553 26.0854 17.9412 26.2301 17.9412C27.4509 17.9412 28.4884 18.9194 28.697 20.2673C28.7209 20.4218 28.7332 20.5827 28.7334 20.7457C28.7342 21.2234 29.0604 21.6216 29.4853 21.6634C30.4065 21.7541 31.1907 22.4034 31.5543 23.3182C31.0676 23.9724 30.7302 24.7712 30.6021 25.6482H25.903C25.3188 25.6482 24.8175 26.0521 24.6084 26.6238C23.5746 25.8352 22.3562 25.4103 21.0794 25.4103C20.2795 25.4103 19.4958 25.579 18.7497 25.9117C18.6231 25.9683 18.5099 26.0519 18.4135 26.1599C18.3157 26.2694 18.2407 26.3978 18.1914 26.5385C18.0018 27.0741 17.8754 27.6248 17.807 28.1789C17.5117 27.8023 17.3036 27.3341 17.2223 26.8087C17.0285 25.5566 17.6138 24.3099 18.6451 23.7769C19.0327 23.5765 19.2195 23.078 19.0757 22.628ZM21.532 30.9659L21.7568 31.2182H19.7779C19.3336 30.0638 19.2661 28.7498 19.6268 27.5174C20.0964 27.3437 20.5838 27.2559 21.0794 27.2559C22.321 27.2559 23.4889 27.7994 24.3679 28.7861C24.4848 28.9174 24.5937 29.0549 24.696 29.1971C24.8356 29.9051 25.0502 30.5815 25.3266 31.2181H24.0848L22.6987 29.6621C22.3771 29.3014 21.8554 29.3004 21.5335 29.6606C21.2112 30.0207 21.2106 30.6051 21.532 30.9659ZM18.023 31.2182H15.0856C15.2166 30.3243 15.6967 29.5623 16.3631 29.1129C16.7576 29.7049 17.2725 30.1835 17.8658 30.5078C17.9078 30.7472 17.9593 30.9846 18.023 31.2182ZM9.7075 1.8457H15.8588V5.66493H9.7075V1.8457ZM14.72 7.51063V9.4416H10.8465V7.51063H14.72ZM7.03157 17.5403H12.3822C12.8374 17.5403 13.2062 17.1271 13.2062 16.6174C13.2062 16.1078 12.8374 15.6946 12.3822 15.6946H7.03157V13.7977C7.03157 12.4134 8.03396 11.2873 9.26608 11.2873H16.3004C17.5326 11.2873 18.535 12.4134 18.535 13.7977V15.6946H16.9965C16.5413 15.6946 16.1725 16.1078 16.1725 16.6174C16.1725 17.1271 16.5413 17.5403 16.9965 17.5403H18.535V18.3594C17.5909 19.396 17.1006 20.9163 17.3428 22.4801C17.3432 22.4832 17.3437 22.4864 17.3442 22.4896C16.0223 23.5053 15.318 25.3111 15.5985 27.124C15.6148 27.2298 15.6354 27.3339 15.6578 27.4369C15.2461 27.6911 14.8764 28.0194 14.5596 28.4035H7.03157V17.5403ZM7.03147 30.2491H13.6028C13.5154 30.5602 13.4536 30.8839 13.4235 31.2182H13.2846C12.5263 31.2182 11.9092 31.9099 11.9092 32.76C11.9092 34.2254 12.0308 35.6639 12.2664 37.0713C12.0297 37.05 11.7869 37.0386 11.5399 37.0386C10.5435 37.0386 9.59402 37.2156 8.86683 37.5373C7.75447 38.0292 7.44697 38.7277 7.37984 39.2111C7.26196 39.2768 7.14616 39.3462 7.03147 39.4172V30.2491ZM17.4652 41.586C17.762 41.8519 17.9434 42.0779 18.0485 42.241C18.0386 42.2411 18.0283 42.2412 18.0179 42.2412C17.5515 42.2412 16.7136 42.0307 15.7607 41.4399C15.406 41.2198 15.0791 40.9711 14.8155 40.721C14.5081 40.4292 14.0573 40.4295 13.7501 40.7211C13.4865 40.9715 13.1597 41.2201 12.8053 41.4397C11.8522 42.0307 11.0143 42.2412 10.5481 42.2412C10.5374 42.2412 10.5272 42.2411 10.5172 42.241C10.6222 42.0779 10.8036 41.8518 11.1005 41.5857C11.3598 41.3532 11.4692 40.9688 11.3776 40.6111C11.286 40.2533 11.0116 39.992 10.6814 39.9487C9.87735 39.8432 9.36891 39.6139 9.13083 39.4471C9.42911 39.239 10.1832 38.8843 11.5402 38.8843C12.6641 38.8843 13.4856 39.1489 13.8795 39.3967C14.1301 39.5542 14.4357 39.5542 14.6863 39.3969C15.0805 39.1491 15.902 38.8844 17.0259 38.8844C18.383 38.8844 19.137 39.2393 19.4352 39.4472C19.1972 39.6142 18.6887 39.8433 17.8844 39.9489C17.5542 39.9923 17.2797 40.2534 17.1882 40.6113C17.0963 40.9692 17.2056 41.3536 17.4652 41.586ZM15.817 52.8184L15.8453 52.9894C15.9433 53.5821 16.15 54.1261 16.4387 54.5991H11.5371C7.58089 54.5991 4.36224 51.3182 4.36224 47.2853C4.36224 44.5291 5.86604 42.1253 8.08044 40.8788C8.33477 41.0915 8.65183 41.2748 9.028 41.4227C8.87881 41.708 8.77488 42.0149 8.75038 42.335C8.71786 42.7605 8.83409 43.1646 9.07799 43.4729C9.40022 43.8804 9.89482 44.087 10.5481 44.087C11.4186 44.087 12.5609 43.701 13.6035 43.0545C13.8435 42.9058 14.0705 42.7487 14.283 42.5845C14.4953 42.7485 14.7223 42.9057 14.9625 43.0547C16.0051 43.701 17.1473 44.0869 18.0179 44.087H18.018C18.671 44.087 19.1656 43.8804 19.4877 43.473C19.7317 43.1647 19.8481 42.7606 19.8154 42.335C19.7909 42.0149 19.687 41.708 19.5378 41.4227C19.914 41.2747 20.2312 41.0913 20.4855 40.8788C22.2416 41.8674 23.5502 43.584 24.0168 45.627L18.1891 48.1065C16.4833 48.8324 15.4856 50.814 15.817 52.8184ZM46.156 53.7307C45.7498 54.2755 45.1518 54.5881 44.5157 54.5883L43.6508 54.5887L43.1105 51.3212C43.0276 50.82 42.5979 50.4886 42.1502 50.5818C41.7029 50.6746 41.4072 51.156 41.4901 51.6572L41.975 54.5893L39.1399 54.5905L38.7746 52.381C38.6916 51.8798 38.2618 51.5488 37.8143 51.6416C37.3669 51.7344 37.0713 52.2158 37.1541 52.717L37.4639 54.5913L30.8694 54.5941L30.373 51.5932C30.29 51.0921 29.8604 50.7611 29.4127 50.854C28.9653 50.9467 28.6697 51.4283 28.7526 51.9295L29.1934 54.5948L19.5646 54.599C19.5644 54.599 19.5642 54.599 19.564 54.599C18.5343 54.599 17.6519 53.7808 17.4654 52.6529L17.437 52.4819C17.2508 51.3553 17.8131 50.2408 18.774 49.8318L22.0125 48.4539L22.2537 49.9123C22.3272 50.3566 22.6735 50.6672 23.0629 50.6672C23.1127 50.6672 23.1633 50.662 23.214 50.6516C23.6614 50.5587 23.9569 50.0772 23.874 49.576L23.5781 47.7878L28.3852 45.7425C28.8106 45.5615 29.0245 45.0285 28.8629 44.552C28.7013 44.0755 28.2248 43.836 27.8 44.017L25.5631 44.9688C24.9356 42.4804 23.3235 40.4018 21.1856 39.2109C21.1185 38.7276 20.811 38.0291 19.6988 37.5371C18.9716 37.2155 18.0221 37.0384 17.0257 37.0384C16.3399 37.0384 15.685 37.1232 15.1069 37.2776V36.7202C15.1069 36.2106 14.7381 35.7974 14.283 35.7974C14.0906 35.7974 13.9142 35.8717 13.7739 35.9955C13.6439 35.0329 13.5712 34.0552 13.5591 33.0637H40.3973C40.8524 33.0637 41.2212 32.6505 41.2212 32.1408C41.2212 31.6312 40.8524 31.218 40.3973 31.218H40.0601C40.5848 30.0077 40.8812 28.6507 40.8812 27.2166C40.8812 26.4024 40.325 25.7317 39.6161 25.6555C39.9247 25.3296 40.3099 25.1098 40.7393 25.026C40.865 25.0016 40.9927 24.9891 41.1188 24.9891C42.1826 24.9891 43.0866 25.8415 43.2682 27.0156C43.2892 27.1515 43.2999 27.2918 43.3 27.4327C43.3006 27.9106 43.6269 28.309 44.0519 28.3509C45.0366 28.4477 45.8423 29.2772 46.0111 30.3679C46.056 30.6579 46.0504 30.9441 46.0054 31.218H45.1214C44.6662 31.218 44.2974 31.6312 44.2974 32.1408C44.2974 32.6505 44.6662 33.0637 45.1214 33.0637H51.5255C51.505 34.7565 51.3104 36.4102 50.9473 38.0146L46.4818 40.9669C46.2087 39.9023 45.5739 38.9993 44.6993 38.451C43.7183 37.8362 42.5525 37.7401 41.5012 38.1873L32.3044 42.1004C31.8789 42.2814 31.6651 42.8145 31.8267 43.2909C31.9883 43.7675 32.4647 44.0067 32.8896 43.8259L34.1011 43.3105L34.4773 45.5852C34.5508 46.0296 34.8971 46.3403 35.2865 46.3403C35.3363 46.3403 35.3868 46.3351 35.4376 46.3246C35.885 46.2319 36.1806 45.7504 36.0978 45.2492L35.667 42.6443L42.0862 39.913C42.681 39.6601 43.3399 39.7143 43.8944 40.0619C44.4479 40.4088 44.8313 41.0068 44.9465 41.7023L46.6134 51.7816C46.7283 52.4767 46.5617 53.187 46.156 53.7307ZM49.096 46.5071C48.7116 46.5862 48.4298 46.9568 48.4211 47.3945C48.4125 47.8322 48.6797 48.2163 49.0606 48.3142L55.1953 49.8901L55.0421 51.0417L47.9302 49.6103L46.8185 42.8878L53.013 38.7923L53.529 39.8157L48.3042 43.7275C47.9793 43.9707 47.8517 44.4361 47.9987 44.8417C48.1455 45.2472 48.5268 45.4815 48.9111 45.4024L57.1185 43.7138L57.3013 44.8188L49.096 46.5071Z" fill="#FF751D"/>
</svg>
