<svg width="50" height="56" viewBox="0 0 50 56" xmlns="http://www.w3.org/2000/svg">
<g clip-path="url(#clip0_19406_2275)">
<path d="M47.6608 22.4358L46.5856 21.1435L42.8118 9.5965C42.1688 7.64607 40.5243 6.35376 38.6901 6.3418H11.736C9.90182 6.3418 8.25737 7.64607 7.61436 9.5965L3.89327 20.9999L2.3437 22.6273C0.994412 23.9315 0.214355 25.8461 0.214355 27.8563V44.6803C0.224897 47.4324 2.19612 49.658 4.62062 49.658H7.40353C9.82803 49.658 11.7993 47.4324 11.8098 44.6803V42.2392H37.9522V44.6803C37.9628 47.4324 39.934 49.658 42.3585 49.658H45.1414C47.5659 49.658 49.5371 47.4324 49.5477 44.6803V27.4136C49.5371 25.535 48.8625 23.7401 47.6608 22.4358ZM9.59612 10.4102C9.93344 9.39308 10.7873 8.73496 11.736 8.73496H38.7007C39.6494 8.73496 40.5032 9.40504 40.8406 10.4102L44.1295 20.4615H41.6733C41.0936 15.9743 37.4146 12.8751 33.4616 13.5452C30.3098 14.0717 27.8326 16.8837 27.3688 20.4615H6.30723L9.59612 10.4102ZM39.5229 20.4615H29.4981C30.0779 17.3144 32.7975 15.3042 35.5699 15.9623C37.5517 16.4409 39.1012 18.1999 39.5229 20.4615ZM9.70153 44.6803C9.69099 46.1162 8.66849 47.2649 7.40353 47.2649H4.62062C3.35567 47.2649 2.33316 46.1162 2.32262 44.6803V41.5452C2.9551 42.0119 3.78786 42.2392 4.62062 42.2392H9.70153V44.6803ZM47.4394 44.6803C47.4289 46.1162 46.4064 47.2649 45.1414 47.2649H42.3585C41.0936 47.2649 40.071 46.1042 40.0605 44.6803V42.2392H45.1414C45.9742 42.2392 46.8069 42.0119 47.4394 41.5452V44.6803ZM45.1414 39.8461H4.62062C3.36621 39.858 2.33316 38.7213 2.32262 37.2854V27.8563C2.32262 26.5401 2.83914 25.2837 3.72461 24.4341C3.73515 24.4221 3.75624 24.3982 3.76678 24.3862L5.2004 22.8546H45.1203L46.1323 24.0871C46.1428 24.111 46.1745 24.123 46.185 24.1469C46.9756 24.9965 47.4289 26.1811 47.4289 27.4136V37.2854H47.4394C47.4289 38.7093 46.3958 39.858 45.1414 39.8461Z" />
<path d="M14.1289 27.6411H6.22295C5.64318 27.6411 5.16882 28.1796 5.16882 28.8377V35.0599C5.16882 35.718 5.64318 36.2565 6.22295 36.2565H14.1289C14.7087 36.2565 15.1831 35.718 15.1831 35.0599V28.8377C15.1831 28.1796 14.7087 27.6411 14.1289 27.6411ZM13.0748 33.8633H7.27709V30.0343H13.0748V33.8633Z" />
<path d="M43.5391 27.6411H35.6331C35.0533 27.6411 34.579 28.1796 34.579 28.8377V35.0599C34.579 35.718 35.0533 36.2565 35.6331 36.2565H43.5391C44.1189 36.2565 44.5932 35.718 44.5932 35.0599V28.8377C44.5932 28.1796 44.1189 27.6411 43.5391 27.6411ZM42.485 33.8633H36.6872V30.0343H42.485V33.8633Z" />
<path d="M29.9725 32.6665H19.7896C19.2098 32.6665 18.7355 33.205 18.7355 33.8631C18.7355 34.5212 19.2098 35.0597 19.7896 35.0597H29.9725C30.5523 35.0597 31.0267 34.5212 31.0267 33.8631C31.0267 33.205 30.5523 32.6665 29.9725 32.6665Z" />
<path d="M29.9725 28.957H19.7896C19.2098 28.957 18.7355 29.4955 18.7355 30.1536C18.7355 30.8117 19.2098 31.3502 19.7896 31.3502H29.9725C30.5523 31.3502 31.0267 30.8117 31.0267 30.1536C31.0267 29.4955 30.5523 28.957 29.9725 28.957Z" />
</g>
<defs>
<clipPath id="clip0_19406_2275">
<rect width="49.3333" height="56" fill="white" transform="translate(0.214355)"/>
</clipPath>
</defs>
</svg>
